<svg xmlns="http://www.w3.org/2000/svg" viewBox="0 0 64 64" style="enable-background:new 0 0 64 64" xml:space="preserve" fill="#fff"><path d="M54.266 11.516H9.734a4.459 4.459 0 0 0-4.453 4.453v32.063a4.459 4.459 0 0 0 4.453 4.453h44.531a4.459 4.459 0 0 0 4.453-4.453V15.969a4.456 4.456 0 0 0-4.452-4.453zm.89 36.515a.892.892 0 0 1-.891.891H9.734a.892.892 0 0 1-.891-.891V15.969c0-.491.399-.891.891-.891h44.531c.491 0 .891.4.891.891v32.062z"/><path d="M52.405 31.504c-.018-.062-.032-.124-.057-.184s-.059-.113-.089-.169c-.025-.046-.045-.093-.074-.137a1.832 1.832 0 0 0-.223-.273l-4.294-4.294a1.78 1.78 0 1 0-2.519 2.519l1.254 1.255h-4.291a1.781 1.781 0 0 0 0 3.562h4.29l-1.254 1.254a1.78 1.78 0 1 0 2.518 2.519l4.294-4.294c.083-.083.158-.175.223-.273.029-.044.049-.091.074-.137.032-.057.066-.111.091-.17.025-.06.039-.122.057-.184.015-.05.034-.097.044-.148.046-.23.046-.468 0-.698-.01-.051-.029-.099-.044-.148zm-30.518-1.285h-4.291l1.254-1.255a1.78 1.78 0 1 0-2.519-2.519l-4.294 4.294a1.772 1.772 0 0 0-.223.273c-.029.043-.049.09-.073.135-.031.057-.065.111-.09.171-.024.059-.039.121-.056.182-.015.05-.034.099-.045.151-.046.23-.046.468 0 .698.01.052.03.1.045.151.018.061.032.123.056.182.025.06.059.115.09.171.025.045.044.092.073.135.066.098.14.19.223.273l4.294 4.294a1.776 1.776 0 0 0 2.518 0 1.78 1.78 0 0 0 0-2.519l-1.254-1.254h4.29a1.781 1.781 0 0 0 .002-3.563z"/></svg>