<svg xmlns="http://www.w3.org/2000/svg" viewBox="0 0 64 64" style="enable-background:new 0 0 64 64" xml:space="preserve" fill="#fff"><path d="M55.156 30.219H33.781a3.567 3.567 0 0 0-3.563 3.563v15.141a3.567 3.567 0 0 0 3.563 3.563h21.375a3.567 3.567 0 0 0 3.563-3.563V33.781a3.566 3.566 0 0 0-3.563-3.562zM33.781 48.922V33.781h21.375l.003 15.141H33.781zm-5.93-31.783c-.984 0-1.781.798-1.781 1.781v4.517l-5.776-5.776a1.78 1.78 0 1 0-2.519 2.519l5.776 5.776h-4.517a1.781 1.781 0 0 0 0 3.562h8.817c.117 0 .234-.012.349-.035.053-.01.102-.03.153-.045.06-.018.121-.032.18-.056.061-.025.115-.059.172-.091.045-.025.091-.044.134-.073.195-.13.363-.298.494-.494.03-.044.05-.093.075-.139.03-.055.064-.109.088-.167.025-.06.039-.122.057-.183.015-.05.034-.098.044-.149a1.78 1.78 0 0 0 .035-.349V18.92a1.78 1.78 0 0 0-1.781-1.781z"/><path d="M25.765 48.923H9.734a.892.892 0 0 1-.891-.891V15.969c0-.491.399-.891.891-.891h44.531c.491 0 .891.4.891.891v9.797a1.781 1.781 0 0 0 3.562 0v-9.797a4.456 4.456 0 0 0-4.452-4.453H9.734a4.459 4.459 0 0 0-4.453 4.453v32.063a4.459 4.459 0 0 0 4.453 4.453h16.031a1.781 1.781 0 0 0 0-3.562z"/></svg>