<svg width="53" height="36" fill="none" xmlns="http://www.w3.org/2000/svg"><path d="M34.725 20.395c-1.62 14.125-4.995 16.807-19.121 15.186C1.479 33.961-1.201 30.586.418 16.461 2.038 2.335 5.414-.346 19.54 1.275c14.125 1.62 16.806 4.994 15.186 19.119Z" fill="url(#a)"/><path d="M19.09 12.695a.834.834 0 0 1-.102.127.98.98 0 0 0-.05.127.407.407 0 0 0 0 .203.332.332 0 0 1 .076.153.8.8 0 0 0-.127.279c-.237.05-.381.068-.432.05a1.264 1.264 0 0 1-.127-.075.563.563 0 0 0-.178.076c-.05.017-.11.042-.177.076a1.608 1.608 0 0 1-.28-.178.834.834 0 0 0-.101-.127 5.625 5.625 0 0 1-.508.026.923.923 0 0 0-.432.05c-.304-.101-.516-.11-.634-.025-.119.085-.271.118-.458.102-.135-.102-.228-.136-.279-.102a.405.405 0 0 1-.203 0c-.17-.135-.27-.186-.305-.152a.994.994 0 0 1-.127.05 1.172 1.172 0 0 0-.228-.025.313.313 0 0 0-.178.05.322.322 0 0 0-.076.153.32.32 0 0 1-.076.127c.102.203.127.322.076.356a.592.592 0 0 0-.101.152l.05.203a.52.52 0 0 1 0 .229l.102.254a.79.79 0 0 1 .101.279c.085.152.102.245.051.28a.287.287 0 0 0-.101.1c.05.288.067.492.05.61a.988.988 0 0 0 .026.38c.034.052.05.128.05.23a.782.782 0 0 0 .051.177c-.05.136-.05.203 0 .203h.204c.22.085.355.119.406.102.05-.017.11-.034.177-.05a1.07 1.07 0 0 1 .28-.204l.305-.203c.22.101.347.127.38.076.051-.05.119-.05.203 0 .119.119.195.152.229.102.034-.068.102-.102.203-.102a2.94 2.94 0 0 0 .229-.203c.084-.068.16-.144.228-.229a2.83 2.83 0 0 0 .381-.228.924.924 0 0 1 .406-.203c.17.118.229.203.178.254.017.135-.017.228-.102.279a.505.505 0 0 0-.152.178c-.068.22-.127.372-.178.457a2.39 2.39 0 0 1-.177.254c.067.186.05.347-.051.482a1.267 1.267 0 0 0-.229.38 2.77 2.77 0 0 0 0 .534.409.409 0 0 1-.127.355c-.067.187-.144.28-.228.28-.068 0-.119.017-.152.05-.22.017-.356.035-.407.051a.108.108 0 0 1-.101 0l-.33-.152c-.136.034-.22.042-.254.025a.283.283 0 0 0-.127-.025.56.56 0 0 0-.229.102.32.32 0 0 1-.254.05c-.152-.101-.262-.135-.33-.101-.067.017-.118-.026-.152-.127a.17.17 0 0 1 .152-.076c.068-.017.102-.068.102-.153a.275.275 0 0 0-.254.076.443.443 0 0 1-.229.128c-.067.22-.118.355-.152.406a.35.35 0 0 0-.076.177c0 .085.017.144.05.178.034.034.051.085.051.152.017.102-.017.195-.101.28a.962.962 0 0 0-.203.305 2.396 2.396 0 0 1-.051.177v.203c.101.153.135.254.101.305-.033.034-.05.085-.05.152.118.17.169.271.152.305a.353.353 0 0 0-.025.152c.101.254.16.398.177.432a1.68 1.68 0 0 1-.05.28l-.051.101c.118.22.16.347.127.38-.017.018-.026.069-.026.153-.033.373-.05.686-.05.94a.824.824 0 0 1 0 .406 1.889 1.889 0 0 1-.076.33c.033.186.033.322 0 .406a.856.856 0 0 1 .101.381c.034.034.05.085.05.152.018.068-.008.119-.075.153a3.33 3.33 0 0 0-.584 0c-.136.034-.246.008-.33-.076l-.204.05c-.05.017-.11.034-.177.051a.636.636 0 0 0-.356 0c-.101.034-.211.05-.33.05-.237-.067-.39-.067-.457 0a.508.508 0 0 1-.305.128 6.586 6.586 0 0 0-.914-.203c-.237-.017-.431.034-.584.152-.186-.05-.287-.085-.304-.101a.544.544 0 0 0-.305.177c-.085.102-.22.136-.406.102.084-.17.152-.271.203-.305a.398.398 0 0 0 .101-.076.797.797 0 0 0 .204-.152.676.676 0 0 1 .228-.153c.237.051.39.051.457 0a.995.995 0 0 1 .229-.127v-.406a.405.405 0 0 0 .228-.178c-.05-.067-.06-.135-.025-.203a.332.332 0 0 1 .152-.152.369.369 0 0 1 .229-.026c.067.017.11.077.127.178.118-.034.186-.118.203-.254a.694.694 0 0 1 .177-.33c-.033-.101-.067-.16-.101-.178-.017-.016-.026-.042-.026-.076-.05-.203-.042-.33.026-.38.068-.051.093-.144.076-.28a2.86 2.86 0 0 0-.101-.355.354.354 0 0 1-.026-.153.626.626 0 0 0 .025-.304.873.873 0 0 1 .127-.254 2.33 2.33 0 0 1 0-.686c.051-.22.094-.448.127-.685.051-.068.077-.178.077-.33-.136.118-.237.16-.305.127 0-.136.042-.237.127-.305a.536.536 0 0 0 .178-.254 4.733 4.733 0 0 1-.127-.38c0-.086.017-.145.05-.179 0-.05-.025-.093-.076-.127-.05-.034-.059-.093-.025-.177-.119-.22-.136-.356-.051-.407a.534.534 0 0 0 .178-.279 1.093 1.093 0 0 0-.102-.355.805.805 0 0 1-.025-.356c-.034-.22-.026-.38.025-.482-.135-.136-.178-.313-.127-.534-.034-.304-.042-.524-.025-.66a.883.883 0 0 1 .178-.38v-.153a.563.563 0 0 0-.026-.178v-.355a.349.349 0 0 1 .076-.178.999.999 0 0 0 .127-.152.462.462 0 0 0-.152-.203.342.342 0 0 1-.127-.229c-.101-.135-.135-.211-.101-.228.05-.017.084-.043.101-.076-.068-.17-.085-.271-.05-.305a.567.567 0 0 0 .075-.203c-.033-.085-.084-.136-.152-.153a1.005 1.005 0 0 1-.152-.127c-.017-.118-.06-.203-.127-.253-.051-.051-.085-.136-.102-.254-.118-.17-.169-.263-.152-.28a2.32 2.32 0 0 1-.229-.152.224.224 0 0 1-.025-.101.632.632 0 0 1-.432-.051.9.9 0 0 1-.254-.254 1.76 1.76 0 0 1-.304-.229.386.386 0 0 0-.203-.101c-.102-.034-.136-.102-.102-.203.22 0 .364-.051.432-.153a.23.23 0 0 0 .254 0 .275.275 0 0 1 .228-.05c.068 0 .127.025.178.076.068.05.16.067.28.05.118-.101.236-.127.355-.076a.565.565 0 0 0 .203-.076.386.386 0 0 1 .203-.101c.034.033.093.05.178.05a.517.517 0 0 1 .228 0 1.55 1.55 0 0 0 .28-.152.254.254 0 0 1 .304 0c.034.085.034.152 0 .203a.568.568 0 0 0-.076.178c.186-.017.322-.034.406-.051.085-.034.17-.06.254-.076.085.05.245.06.482.025a.9.9 0 0 0 .254-.076c.085-.034.17-.008.254.076.102.119.186.161.254.127.068-.05.144-.101.229-.152a.71.71 0 0 0 .33-.026.727.727 0 0 1 .38 0 .79.79 0 0 0 .33-.127c.12-.067.23-.059.33.026.136.152.28.211.432.178a.761.761 0 0 1 .432-.026h.254a.346.346 0 0 1 .229.026c.101-.102.22-.187.355-.254.152-.068.305-.127.457-.178.085-.017.144-.008.178.025a.354.354 0 0 0 .152.026c.102-.102.17-.161.203-.178l.102-.101c.22-.051.372-.102.457-.153.101-.068.211-.144.33-.228a1.02 1.02 0 0 1 .152-.204 2.12 2.12 0 0 1 .203-.177c0-.186.051-.305.153-.356a.906.906 0 0 0 .254-.254 1.245 1.245 0 0 0-.076-.127.127.127 0 0 1 0-.152.346.346 0 0 1 .228.025c.085.034.152.068.203.102.017.186.05.27.102.254.05-.034.084-.034.101 0 0 .101-.042.16-.127.178a.504.504 0 0 0-.228.05 2.05 2.05 0 0 0-.178.33.806.806 0 0 0-.025.356 1.662 1.662 0 0 1-.102.178.36.36 0 0 0-.05.203c-.102.17-.17.262-.204.28-.017.016-.05.016-.101 0-.017.253-.009.405.025.456.05.034.085.085.102.152-.017.085-.068.127-.153.127a.313.313 0 0 0-.178.051.48.48 0 0 0-.025.153c0 .05-.008.11-.025.177a6.705 6.705 0 0 0-.305.28.508.508 0 0 0-.076.304Zm5.083 7.82a.408.408 0 0 1-.101.33 1.284 1.284 0 0 0-.153.305c.068.102.102.22.102.356a1.42 1.42 0 0 1 0 .38l-.051.407c0 .135.017.262.05.38a.957.957 0 0 0-.075.382l.05.406c-.05.22-.059.38-.025.482a.9.9 0 0 1 .05.33c-.1.22-.143.373-.126.457.034.085.034.153 0 .204.084.253.118.406.101.457-.017.05-.008.11.026.177-.034.034-.051.093-.051.178a.36.36 0 0 1-.05.203c-.12 0-.187-.034-.204-.101a.247.247 0 0 0-.102-.153.893.893 0 0 1-.254.026.744.744 0 0 1-.279-.051.678.678 0 0 0-.177.127c-.034.05-.094.06-.178.025a.32.32 0 0 0-.076.153c-.017.05-.06.093-.127.127-.119-.136-.186-.237-.203-.305a.361.361 0 0 0-.051-.203c-.288.186-.483.237-.584.152a.591.591 0 0 1-.533-.101c-.017-.271.017-.432.101-.483a1.45 1.45 0 0 1-.076-.254c0-.101-.008-.195-.025-.28.033-.067.067-.151.101-.253a.548.548 0 0 0 0-.33c-.068-.186-.093-.33-.076-.432a.805.805 0 0 0 .025-.355c.034-.22.076-.364.127-.432.051-.067.06-.152.026-.254a1.79 1.79 0 0 1-.102-.431.568.568 0 0 1 .102-.407 1.444 1.444 0 0 1-.076-.254.744.744 0 0 0-.051-.279c0-.135.008-.245.025-.33a.282.282 0 0 0-.025-.127v-.152c-.085-.085-.119-.229-.102-.432.017-.203.068-.338.152-.406a2.062 2.062 0 0 1-.101-.813 5.406 5.406 0 0 0-.025-.914c.067-.101.084-.237.05-.406.051-.152.068-.262.051-.33a.287.287 0 0 1 .026-.203c-.051-.085-.077-.212-.077-.381.017-.17.068-.288.153-.355a3.016 3.016 0 0 1-.102-.229c-.017-.085 0-.152.05-.203a1.665 1.665 0 0 0-.1-.28 1.334 1.334 0 0 1-.077-.304c-.017-.068-.008-.11.026-.127.033-.034.042-.093.025-.178.118-.152.186-.279.203-.38.017-.102.085-.153.203-.153-.203-.22-.33-.347-.38-.38a.32.32 0 0 0-.077-.128c-.034-.05-.042-.118-.025-.203.05-.203.042-.355-.026-.457a1.825 1.825 0 0 0-.228-.28 2.497 2.497 0 0 0-.05-.177.407.407 0 0 1 0-.203c.05-.373-.069-.584-.356-.635-.068-.135-.119-.203-.153-.203-.017 0-.042-.017-.076-.05-.084-.17-.186-.238-.305-.204a.275.275 0 0 1-.253-.076c0-.085-.026-.136-.077-.152a.245.245 0 0 1-.127-.102c0-.068.026-.11.077-.127l.152-.05a.473.473 0 0 0 .305.1.443.443 0 0 0 .228-.126.34.34 0 0 1 .28-.076c.169.084.262.101.279.05.034-.05.093-.076.177-.076.119.187.204.263.254.229a.678.678 0 0 0 .178-.127.591.591 0 0 1 .305-.025c.135.017.245.05.33.101a.625.625 0 0 1 .305-.025c.101 0 .22-.009.355-.026.135.051.22.06.254.026a.247.247 0 0 1 .152-.102c.051.017.085.05.102.102l.101.101a.407.407 0 0 0 .204 0 .644.644 0 0 0 .152-.076c.27-.101.406-.085.406.05 0 .136-.017.272-.05.407a.91.91 0 0 0 .05.127.32.32 0 0 1 .076.127 2.816 2.816 0 0 1-.228.33.225.225 0 0 0-.026.102c-.017.084 0 .16.051.228.068.068.085.161.05.28-.135.169-.185.262-.151.279l.152.05c.05.22.06.348.025.381-.034.017-.059.06-.076.127a.983.983 0 0 0 .102.28.678.678 0 0 0-.051.254v.228a.908.908 0 0 1-.076.229.94.94 0 0 0-.026.228.95.95 0 0 0 .077.381c.05.101.05.212 0 .33.05.508.042.897-.026 1.168.017.22.034.39.05.508a.399.399 0 0 1-.05.28.32.32 0 0 0 .076.126.172.172 0 0 1 .051.127.477.477 0 0 1-.127.406c-.101.203-.118.33-.05.381.067.05.118.119.152.203.017.136 0 .237-.051.305a.48.48 0 0 0-.025.28c.017.084.042.168.076.253a.906.906 0 0 1 .076.229c-.119.084-.17.16-.152.228.017.051.017.093 0 .127a.679.679 0 0 0 .127.178c.05.034.084.093.101.178Zm12.421.585c.034.084.042.16.026.228a.661.661 0 0 0-.026.203c-.101.119-.152.195-.152.229.017.017.008.05-.026.101.102.136.119.212.051.229a.245.245 0 0 0-.127.101l-.101.204c-.017.05-.043.118-.076.203a.702.702 0 0 1-.077.279.792.792 0 0 0-.05.178c.05.186.033.296-.051.33a.504.504 0 0 0-.178.152c.017.305-.017.55-.102.736a1.142 1.142 0 0 0-.05.584.993.993 0 0 1-.127.229 3.018 3.018 0 0 0-.102.229c-.068.186-.068.33 0 .431a.407.407 0 0 1 0 .203.782.782 0 0 0-.05.153c-.12.033-.246.05-.381.05a.416.416 0 0 1-.305-.127.513.513 0 0 1-.28.026L34.157 26c-.288.085-.44.042-.457-.127-.187.152-.364.212-.534.178-.152-.017-.253 0-.304.05a2.719 2.719 0 0 0-.457-.025c-.203.017-.322-.008-.356-.076a.32.32 0 0 0-.152.076c-.017.051-.06.093-.127.127a1.083 1.083 0 0 0-.38-.05.76.76 0 0 1-.356-.026c-.085.034-.187.06-.305.076-.119.017-.195-.042-.229-.178a1.68 1.68 0 0 1-.177.102l-.153.102c-.084-.017-.152-.009-.203.025-.034.034-.084.042-.152.025-.068 0-.127-.034-.178-.101-.05-.051-.127-.068-.228-.051a.442.442 0 0 1-.33.025.96.96 0 0 0-.305-.05c-.237.084-.373.11-.406.076a.398.398 0 0 1-.102-.076.732.732 0 0 0-.28 0 .787.787 0 0 1-.177.05 2.43 2.43 0 0 1-.178-.05h-.127a.614.614 0 0 0-.254 0c-.034.033-.093.042-.177.025-.119-.152-.195-.229-.229-.229s-.05-.025-.05-.076c.118-.169.22-.296.304-.38a.58.58 0 0 0 .229-.128c.05-.067.143-.093.279-.076.05-.05.068-.093.05-.127a1.761 1.761 0 0 1-.05-.203.755.755 0 0 0 .101-.076l.153-.076a.383.383 0 0 1 .152-.127.65.65 0 0 0 .152-.152.828.828 0 0 1-.101-.127.216.216 0 0 1 0-.204c-.068-.135-.085-.211-.05-.228a.245.245 0 0 0 .1-.127c.068-.034.102-.076.102-.127a.568.568 0 0 1 .076-.178c-.05-.203-.059-.304-.025-.304.05-.017.085-.043.102-.076.017-.085.008-.136-.026-.153l-.101-.101c0-.085-.026-.144-.076-.178a.679.679 0 0 1-.127-.178c0-.338.042-.61.127-.812.084-.204.169-.381.253-.534-.034-.067-.076-.101-.127-.101a.244.244 0 0 1-.127-.102c0-.084.009-.144.026-.177a.647.647 0 0 1 .076-.153.635.635 0 0 0-.076-.33c-.05-.084-.06-.22-.026-.406-.067-.186-.084-.288-.05-.305a.398.398 0 0 0 .076-.101c.034-.204.042-.314.025-.33-.017-.017-.025-.043-.025-.077a.382.382 0 0 0 0-.38.584.584 0 0 1-.026-.381c-.05-.17-.093-.263-.127-.28-.016-.017-.016-.042 0-.076 0-.085.026-.144.077-.178a.382.382 0 0 0 .127-.152c-.068-.101-.085-.262-.051-.482a.891.891 0 0 1-.254-.127c-.068-.051-.093-.144-.076-.28a.453.453 0 0 0-.127-.127.324.324 0 0 1-.076-.152.387.387 0 0 1 .228-.28.955.955 0 0 0 .305-.278 1.09 1.09 0 0 1-.076-.381c0-.119-.009-.237-.026-.356.068-.17.085-.262.051-.28-.017-.033-.008-.075.026-.126.084-.136.101-.212.05-.229a.59.59 0 0 1-.101-.152l.076-.152a.646.646 0 0 1 .076-.153c-.085-.203-.127-.355-.127-.457a.821.821 0 0 0-.05-.304l-.153-.33c-.017-.085-.05-.136-.102-.153a.401.401 0 0 1-.101-.076c.017-.085 0-.135-.051-.152-.05-.017-.085-.068-.101-.153-.017-.118-.043-.186-.077-.203a.166.166 0 0 1-.076-.076c-.152-.17-.212-.262-.178-.28l.102-.1c-.186-.069-.288-.11-.305-.128a48.087 48.087 0 0 1-.05-.101c-.254-.017-.373-.068-.356-.153a.774.774 0 0 0 0-.279c.068-.068.16-.093.28-.076.118.017.22 0 .304-.05.102 0 .186.016.254.05.085.034.186.05.305.05.169-.084.279-.118.33-.1h.152a.534.534 0 0 1 .28-.077c.1-.017.177.017.228.102.203-.085.313-.119.33-.102l.102.05a.623.623 0 0 1 .228-.05.286.286 0 0 1 .203.025c.152-.017.28-.042.381-.076a1.11 1.11 0 0 1 .432-.076c.135.102.228.152.279.152.068-.017.118-.008.152.026 0 .084-.017.144-.05.178-.017.016-.009.059.025.126-.034.085-.06.153-.076.204a1.238 1.238 0 0 1-.077.127c.034.203.06.313.077.33.034 0 .05.017.05.05.017.102-.025.187-.127.254.034.051.06.093.077.127a.796.796 0 0 1 .05.153 1.52 1.52 0 0 0-.076.253c0 .068.017.144.051.229-.05.17-.085.262-.102.28.085.22.119.363.102.43-.085.136-.127.246-.127.331.017.085.025.17.025.254.085.152.128.372.128.66.033.05.067.093.101.127a.834.834 0 0 1 .102.127c0 .101-.026.178-.077.229a.567.567 0 0 0-.076.203c-.135.101-.203.169-.203.203a.352.352 0 0 1 .025.152c.068.22.068.364 0 .432-.067.067-.084.16-.05.279.152.135.211.212.178.229-.017 0-.034.017-.051.05a8.339 8.339 0 0 0-.026.559v.432c.305.169.457.313.457.431 0 .119-.067.186-.203.203-.135 0-.22.051-.254.153 0 .067.017.118.051.152.034.034.06.085.076.152a.605.605 0 0 1-.101.28c.084.22.101.389.05.508.051.135.06.262.026.38a7.99 7.99 0 0 0-.102.33c.034.068.068.127.102.178.05.034.084.093.101.178a.275.275 0 0 1-.076.203l-.101.102c.017.067.05.11.101.127.051 0 .093.016.127.05a.213.213 0 0 1-.025.178l-.102.102a.318.318 0 0 0-.076.127c0 .05-.017.093-.05.127l-.052.304c0 .102.026.195.077.28a.55.55 0 0 1 0 .33 5.68 5.68 0 0 0-.051.304.6.6 0 0 0 .152.076.23.23 0 0 1 .153.127c.017.051.025.11.025.178a.287.287 0 0 1-.025.203.72.72 0 0 0 .38 0 .943.943 0 0 1 .407-.05c.067.033.135.059.203.076a.239.239 0 0 1 .178.127c.084-.017.203-.034.355-.051a1.05 1.05 0 0 1 .38-.026c.153.102.272.136.356.102a.542.542 0 0 1 .28-.025.463.463 0 0 0 .203-.153c.05-.084.144-.127.28-.127l.1-.101a.171.171 0 0 1 .153-.076.32.32 0 0 0 .076-.127.383.383 0 0 1 .127-.153c.17-.017.263-.05.28-.101a.322.322 0 0 1 .076-.153c.067-.017.11-.042.127-.076a.834.834 0 0 1 .127-.101c.169.016.245-.026.228-.127 0-.102.017-.186.05-.254a.597.597 0 0 1 .204-.127c.084-.051.16-.11.228-.178a.172.172 0 0 0-.05-.127.168.168 0 0 1 .025-.152c.068-.017.152-.076.254-.178a4.49 4.49 0 0 1 .203-.28.398.398 0 0 0 .102-.075l.228-.127Zm15.062 4.671c.034.051.093.068.178.051.101-.034.16 0 .177.102a.383.383 0 0 1-.127.152.828.828 0 0 1-.101.127h-.381c-.102.017-.195-.017-.28-.101a5.123 5.123 0 0 1-.279.101c-.101.034-.194.009-.279-.076-.186 0-.296-.017-.33-.05a.477.477 0 0 1-.406-.128c-.17.017-.297.076-.381.178a.774.774 0 0 1-.33.229c-.051-.153-.085-.238-.102-.254-.017-.017-.025-.043-.025-.077a.286.286 0 0 0 .025-.203c0-.084.017-.16.051-.228.152-.17.245-.313.28-.432-.034-.034-.094-.05-.178-.05-.085 0-.136-.043-.153-.128 0-.203-.008-.313-.025-.33a.33.33 0 0 0 0-.254c-.034-.084-.017-.169.05-.253l-.152-.153c-.05-.05-.076-.127-.076-.228a.637.637 0 0 1 .153-.254.632.632 0 0 0 .152-.28c-.186-.101-.313-.203-.381-.304a.704.704 0 0 1 0-.457c.05-.136.093-.254.127-.356a.565.565 0 0 1 .025-.38c-.152-.153-.211-.238-.177-.255a.396.396 0 0 0 .076-.101 9.543 9.543 0 0 1-.229-.203c-.017-.034-.008-.068.026-.102-.102-.27-.136-.448-.102-.533.034-.085.06-.186.076-.305-.084-.186-.152-.296-.203-.33a.317.317 0 0 1-.076-.127c-.034-.186-.042-.288-.026-.304a.166.166 0 0 0 .077-.077.988.988 0 0 1-.076-.203.565.565 0 0 0-.077-.203c.017-.118.034-.22.051-.305a.805.805 0 0 0 .026-.355 1.41 1.41 0 0 1-.077-.178.946.946 0 0 1-.025-.228.965.965 0 0 0 .127-.254c-.152-.05-.246-.05-.28 0-.016.034-.05.06-.101.076-.034.136-.085.229-.152.28a.32.32 0 0 0-.153.177c.068.203.076.33.026.38l-.153.153c-.017.17-.042.313-.076.432-.034.101-.034.237 0 .406a3.08 3.08 0 0 1-.254.229.412.412 0 0 0-.177.254c0 .05.008.101.025.152.034.034.042.085.025.152-.101.203-.152.339-.152.407a.561.561 0 0 1-.025.177c0 .22-.026.347-.077.381-.05.017-.093.06-.127.127a.92.92 0 0 0 .077.229c.05.067.076.143.076.228-.017.136-.11.246-.28.33-.118.17-.194.322-.228.457a.493.493 0 0 1-.178.33.603.603 0 0 1-.101.28 2.503 2.503 0 0 0-.153.228c-.017.068-.017.119 0 .152a.98.98 0 0 1 .051.127.725.725 0 0 0 0 .381.446.446 0 0 1-.05.356c-.238.135-.322.313-.255.533-.084.152-.118.237-.101.254.017 0 .025.017.025.05a2.494 2.494 0 0 1-.076.178c-.017.017-.008.068.026.153-.187.05-.288.093-.305.127 0 .017-.034.017-.102 0a.247.247 0 0 1-.152-.102l-.102-.152c0-.085.009-.144.026-.178a.354.354 0 0 0 .025-.152c-.101-.237-.178-.364-.228-.381-.051-.034-.068-.093-.051-.178-.05-.203-.068-.33-.05-.38.016-.069.033-.145.05-.23-.017-.067-.11-.118-.28-.152a.987.987 0 0 1-.05-.127.168.168 0 0 1 .025-.152c-.101-.203-.135-.313-.101-.33a.318.318 0 0 0 .076-.127 3.032 3.032 0 0 0-.229-.102c-.067-.05-.084-.127-.05-.228-.136-.186-.195-.305-.178-.355a2.43 2.43 0 0 1 .05-.178.32.32 0 0 0-.076-.127l-.05-.152a2.535 2.535 0 0 1-.178-.458.68.68 0 0 1 .05-.253.281.281 0 0 0-.025-.127v-.153a.564.564 0 0 0-.228-.33 1.622 1.622 0 0 1-.28-.305.435.435 0 0 0-.025-.177 1.242 1.242 0 0 0-.076-.127c0-.085.008-.153.025-.203a.287.287 0 0 0-.025-.203c-.153-.17-.237-.305-.254-.407a.746.746 0 0 0-.05-.279c-.085-.186-.11-.288-.077-.305.034-.017.042-.05.025-.101-.152-.119-.203-.203-.152-.254a134.4 134.4 0 0 1-.152-.102.323.323 0 0 1-.076-.152.77.77 0 0 0 0-.28c0-.084.017-.194.05-.33-.017-.033-.059-.05-.127-.05a.561.561 0 0 0-.177-.026c-.102.034-.153.102-.153.203a.922.922 0 0 1 0 .305c-.05.22-.118.373-.203.457.051.186.06.305.026.356l-.051.152c.017.085.034.152.05.203a.32.32 0 0 1 .077.127.386.386 0 0 1-.102.203l-.152.102c.017.22.008.347-.026.38.085.068.127.145.127.23v.304c-.084.203-.169.347-.253.431.05.204.059.322.025.356l-.05.102a.48.48 0 0 1 .025.152.354.354 0 0 1 .025.152c.05.17.06.271.025.305a.396.396 0 0 0-.101.076.48.48 0 0 1 .025.152c.017.051.034.094.05.127 0 .102-.033.17-.1.203a.32.32 0 0 0-.153.178c.05.203.068.406.05.61a3.084 3.084 0 0 0 0 .558c0 .271-.05.466-.152.584-.101.102-.152.246-.152.432.085.152.119.245.102.28l-.051.1a.44.44 0 0 1 .025.255v.228c.068.203.034.322-.101.356a1.904 1.904 0 0 0-.33.127 2.22 2.22 0 0 1-.407.203c-.101.169-.152.262-.152.279.017.017.025.034.025.05a.69.69 0 0 1-.33.204.746.746 0 0 0-.279-.05.275.275 0 0 0-.203.075c-.017.136-.05.203-.102.203a.416.416 0 0 0-.127.026l-.101.101c-.017.051-.06.076-.127.076-.102.119-.16.178-.178.178 0 .017-.017.026-.05.026-.17.101-.271.177-.305.228-.017.068-.051.085-.102.05-.05.052-.076.094-.076.128 0 .05-.017.093-.05.127-.17.084-.246.135-.23.152.018.017.018.043 0 .076a1.46 1.46 0 0 0-.228.229.486.486 0 0 1-.28.203c-.067.085-.118.16-.151.229-.051.067-.11.143-.178.228a1.09 1.09 0 0 0-.356.203c-.084.068-.16.144-.228.229-.102-.254-.127-.44-.076-.559a.26.26 0 0 1 .228-.203 5.08 5.08 0 0 0 .102-.28l.101-.253a.857.857 0 0 0 .203-.229l.153-.254c.034-.135.067-.245.101-.33a.383.383 0 0 1 .127-.152.454.454 0 0 0 .127-.127c-.034-.203-.025-.322.026-.356a3.47 3.47 0 0 1 .152-.457 1.17 1.17 0 0 0 .152-.33.453.453 0 0 0 .127-.127.454.454 0 0 1 .127-.127.33.33 0 0 1 0-.253c.05-.102.093-.195.127-.28-.05-.152-.06-.237-.025-.254a.834.834 0 0 0 .127-.101c-.034-.17-.076-.254-.127-.254-.051-.017-.068-.068-.051-.152.135-.068.203-.136.203-.204 0-.067-.017-.118-.05-.152a.452.452 0 0 0 .05-.305.376.376 0 0 1 .102-.33c-.017-.237-.009-.406.025-.508a.638.638 0 0 1 .152-.253c0-.136.017-.254.051-.356a.821.821 0 0 0 0-.406c.068-.119.127-.288.178-.508-.119-.186-.152-.288-.102-.305a.382.382 0 0 0 .153-.127c-.085-.253-.119-.414-.102-.482a.349.349 0 0 0-.05-.254c0-.068.016-.118.05-.152a.833.833 0 0 0 .102-.127 4.46 4.46 0 0 1 .05-.432.47.47 0 0 0 0-.305c.017-.084.043-.169.077-.253a.61.61 0 0 0 .05-.356c0-.135.026-.203.077-.203.05-.017.076-.06.076-.127-.068-.237-.093-.38-.076-.432.033-.067.067-.143.101-.228-.017-.322.009-.559.076-.711.085-.152.17-.313.254-.483.017-.118.034-.186.051-.203a.172.172 0 0 0 .05-.127.36.36 0 0 0-.202-.05c-.068 0-.093-.043-.076-.127a.462.462 0 0 1 .152-.203.461.461 0 0 0 .152-.204c-.068-.22-.093-.347-.076-.38l.102-.153a.345.345 0 0 0-.026-.228.908.908 0 0 0-.076-.229 1.172 1.172 0 0 1-.025-.228.49.49 0 0 1 .076-.254c-.051-.136-.06-.246-.026-.33.153-.136.203-.246.153-.33a.34.34 0 0 0 .076-.28c0-.118.017-.22.05-.304a3.814 3.814 0 0 1-.075-.204.312.312 0 0 0-.051-.177c-.051-.17-.11-.271-.178-.305a.68.68 0 0 1-.178-.127 1.802 1.802 0 0 1-.076-.228.625.625 0 0 0-.05-.229 1.664 1.664 0 0 1-.178-.101c-.051-.051-.043-.11.025-.178a.246.246 0 0 0-.152-.102.318.318 0 0 1-.127-.076c-.017-.118.042-.211.177-.28.068.035.144.069.229.102.084.017.16.043.228.076.271-.067.466-.093.584-.076h.305a1.41 1.41 0 0 1 .178-.076.505.505 0 0 1 .228-.05c.271.016.483.025.635.025.152 0 .27.034.356.101.152-.017.279-.05.38-.101.119-.051.254-.076.407-.076.152.067.287.101.406.101.135-.017.22.017.254.102 0 .084-.017.16-.051.228a.993.993 0 0 1-.076.203c.05.136.093.212.127.229.034.017.05.05.05.101.102.17.136.263.102.28a.396.396 0 0 0-.101.076c.084.203.144.322.177.355.034.034.043.085.026.153.135.22.194.364.177.431a.642.642 0 0 1-.076.153c.136.169.195.27.178.304v.127c.186.204.22.339.102.407l.127.33c.05.067.076.152.076.254a.313.313 0 0 0 .152.228c-.034.085-.042.152-.025.203a.64.64 0 0 0 .076.152c.101.17.135.28.101.33-.017.051-.042.12-.076.204.102.152.144.245.127.279 0 .034.009.068.026.102.05.034.093.076.127.127.05.033.118.067.203.101.067.102.084.28.05.533a.83.83 0 0 0 .102.127c.05.017.093.043.127.076a.52.52 0 0 1 0 .229.323.323 0 0 1-.076.152l.101.254c.051.085.093.178.127.28a2.5 2.5 0 0 0 .305-.254l.305-.254c-.017-.051-.06-.085-.127-.102-.051-.017-.085-.06-.102-.127.034-.135.085-.254.152-.355.068-.119.094-.288.077-.508.084-.136.101-.203.05-.203-.05-.017-.076-.06-.076-.127.119-.186.187-.313.203-.381a.707.707 0 0 0 .051-.305l.026-.279c.017-.068.076-.152.177-.254a.33.33 0 0 1 0-.254.245.245 0 0 1 .203-.178 1.78 1.78 0 0 1 .051-.203 3.03 3.03 0 0 0 .102-.228.398.398 0 0 1 .101-.076.453.453 0 0 0 .127-.127c0-.102-.034-.178-.101-.229-.051-.05-.068-.144-.051-.28.085-.152.118-.236.102-.253a32.058 32.058 0 0 0-.051-.102c.034-.084.042-.135.025-.152a.792.792 0 0 1-.05-.152.32.32 0 0 1 .076-.127c.033-.051.033-.119 0-.203a4.4 4.4 0 0 0-.153-.178 48.087 48.087 0 0 1-.05-.102 1.521 1.521 0 0 1-.255-.127v-.076a5.194 5.194 0 0 1-.304-.254 1.662 1.662 0 0 1-.102-.177c-.152-.119-.203-.204-.152-.254.084.017.16.025.228.025.085 0 .17.009.254.025a.96.96 0 0 1 .305-.05c.119 0 .229-.009.33-.026.186.034.313.051.38.051l.255-.05c.05-.035.11-.06.178-.077l.203-.05c.186-.034.33-.068.431-.102a.29.29 0 0 1 .305.076h.229a1.28 1.28 0 0 1 .254-.025c.152.033.253.05.304.05a.318.318 0 0 0 .127-.076c.102.102.22.127.356.076a.63.63 0 0 1 .431 0c-.034.153-.084.229-.152.229a.317.317 0 0 0-.178 0c.05.085.11.118.178.101a.33.33 0 0 1 .254 0c.118.153.152.271.101.356a.551.551 0 0 1-.152.178c.068.169.093.27.076.304l-.076.077c.034.05.068.126.102.228.05.102.033.186-.051.254a.221.221 0 0 1-.026.228c-.05.068-.093.127-.127.178.102.186.161.305.178.356.034.05.05.118.05.203a.89.89 0 0 1-.05.279c.068.17.093.27.076.305a.297.297 0 0 0-.05.076c.033.068.059.135.076.203.034.05.059.11.076.178a.583.583 0 0 0 .025.38c.051.12.093.238.127.356.017.186.051.33.102.432 0 .186-.009.33-.026.431a.41.41 0 0 0 .026.254c.034.237.068.381.101.432.051.05.068.127.051.228-.034.153-.042.237-.025.254.034 0 .068.017.101.051.034.17.06.28.077.33.033.051.05.093.05.127a.241.241 0 0 1-.101.203l-.178.178c.034.05.076.11.127.178a.242.242 0 0 1 .076.228c-.068.271-.076.457-.025.559a.473.473 0 0 1 .101.305.17.17 0 0 1 .051.127.32.32 0 0 0 .076.126.274.274 0 0 1-.076.204l-.102.101c.017.05.026.11.026.178l.05.152a.232.232 0 0 1 .153.178.52.52 0 0 1 0 .228.796.796 0 0 1-.102.254.545.545 0 0 1-.101.178c.152-.034.254.009.305.127 0 .085-.017.144-.051.178a1.238 1.238 0 0 1-.076.127.947.947 0 0 1 .025.38 1.853 1.853 0 0 1-.076.356c.118.068.195.118.228.152a.248.248 0 0 1 .102.153l.05.33a.512.512 0 0 1-.025.28c0 .1.034.185.102.253.068.05.144.093.228.127 0 .186-.05.313-.152.38-.085.069-.135.187-.152.356.067.034.127.068.177.102.068.034.093.093.077.178-.068.135-.094.22-.077.253.034.017.051.051.051.102-.017.17-.042.28-.076.33a.323.323 0 0 0-.076.152Z" fill="#fff"/><defs><linearGradient id="a" x1="38.541" y1="57.12" x2=".018" y2="-.504" gradientUnits="userSpaceOnUse"><stop offset=".547" stop-color="#52AABD"/><stop offset=".948" stop-color="#073BF3"/><stop offset=".977" stop-color="#FFBCCE"/></linearGradient></defs></svg>