     <svg xmlns="http://www.w3.org/2000/svg" xmlns:xlink="http://www.w3.org/1999/xlink" version="1.1" x="0px" y="0px"
            viewBox="0 0 64 64" style="enable-background:new 0 0 64 64;" xml:space="preserve" fill="#fff">
            <path
                d="M54.266,11.516H9.734c-2.455,0-4.453,1.998-4.453,4.453v32.063c0,2.455,1.998,4.453,4.453,4.453h44.531  c2.455,0,4.453-1.998,4.453-4.453V15.969C58.719,13.513,56.721,11.516,54.266,11.516z M55.156,48.031  c0,0.491-0.399,0.891-0.891,0.891H9.734c-0.491,0-0.891-0.399-0.891-0.891V15.969c0-0.491,0.399-0.891,0.891-0.891h44.531  c0.491,0,0.891,0.4,0.891,0.891V48.031z" />
            <path
                d="M52.405,31.504c-0.018-0.062-0.032-0.124-0.057-0.184c-0.025-0.06-0.059-0.113-0.089-0.169  c-0.025-0.046-0.045-0.093-0.074-0.137c-0.066-0.098-0.14-0.19-0.223-0.273l-4.294-4.294c-0.696-0.696-1.823-0.696-2.519,0  c-0.696,0.695-0.696,1.823,0,2.519l1.254,1.255h-4.291c-0.984,0-1.781,0.798-1.781,1.781c0,0.983,0.798,1.781,1.781,1.781h4.29  l-1.254,1.254c-0.696,0.696-0.696,1.823,0,2.519c0.348,0.348,0.804,0.522,1.259,0.522c0.455,0,0.911-0.174,1.259-0.522l4.294-4.294  c0.083-0.083,0.158-0.175,0.223-0.273c0.029-0.044,0.049-0.091,0.074-0.137c0.032-0.057,0.066-0.111,0.091-0.17  c0.025-0.06,0.039-0.122,0.057-0.184c0.015-0.05,0.034-0.097,0.044-0.148c0.046-0.23,0.046-0.468,0-0.698  C52.439,31.601,52.42,31.553,52.405,31.504z" />
            <path
                d="M21.887,30.219h-4.291l1.254-1.255c0.696-0.696,0.696-1.823,0-2.519c-0.696-0.696-1.823-0.696-2.519,0l-4.294,4.294  c-0.083,0.083-0.158,0.175-0.223,0.273c-0.029,0.043-0.049,0.09-0.073,0.135c-0.031,0.057-0.065,0.111-0.09,0.171  c-0.024,0.059-0.039,0.121-0.056,0.182c-0.015,0.05-0.034,0.099-0.045,0.151c-0.046,0.23-0.046,0.468,0,0.698  c0.01,0.052,0.03,0.1,0.045,0.151c0.018,0.061,0.032,0.123,0.056,0.182c0.025,0.06,0.059,0.115,0.09,0.171  c0.025,0.045,0.044,0.092,0.073,0.135c0.066,0.098,0.14,0.19,0.223,0.273l4.294,4.294c0.348,0.348,0.804,0.522,1.259,0.522  c0.455,0,0.911-0.174,1.259-0.522c0.696-0.696,0.696-1.823,0-2.519l-1.254-1.254h4.29c0.984,0,1.781-0.798,1.781-1.781  C23.666,31.018,22.871,30.219,21.887,30.219z" />
        </svg>