<svg viewBox="0 0 383 277" fill="none" xmlns="http://www.w3.org/2000/svg">
<path fill-rule="evenodd" clip-rule="evenodd" d="M196.498 4.66003C186.79 4.66003 176.685 5.90464 166.181 8.40564L166.159 8.41089L166.137 8.41563C155.757 10.6398 145.987 14.8415 136.818 21.0372C127.706 27.1934 119.656 35.72 112.685 46.6738L112.68 46.6826L112.674 46.6914C106.823 55.6767 102.609 67.0525 100.092 80.8877C99.5323 83.9623 101.668 86.9207 104.883 87.4566L159.015 96.4787C162.478 97.0557 165.904 94.4285 166.795 90.5198C168.265 84.0716 171.086 79.0256 175.397 75.6088C179.706 72.1934 185.283 70.58 191.938 70.58C199.035 70.58 204.813 73.063 209.036 78.118C213.166 82.8086 215.218 88.4737 215.218 95C215.218 100.376 214.007 105.721 211.622 111.021C209.157 116.498 203.56 122.939 195.158 130.322L195.152 130.328L126.577 189.621C122.373 193.256 124.944 200.16 130.501 200.16H286.918C292.441 200.16 296.918 204.637 296.918 210.16V266.36C296.918 271.883 292.441 276.36 286.918 276.36H110.998C109.893 276.36 108.998 275.465 108.998 274.36C108.998 273.255 109.893 272.36 110.998 272.36H286.918C290.232 272.36 292.918 269.674 292.918 266.36V210.16C292.918 206.846 290.232 204.16 286.918 204.16H130.501C121.239 204.16 116.954 192.654 123.961 186.596L192.518 127.318C192.52 127.316 192.522 127.314 192.524 127.312C200.838 120.005 205.879 114.034 207.974 109.379C210.149 104.546 211.218 99.7574 211.218 95C211.218 89.3762 209.476 84.6619 206.018 80.7433L206 80.7221L205.982 80.7004C202.606 76.65 198.005 74.58 191.938 74.58C185.926 74.58 181.304 76.0308 177.882 78.7434C174.461 81.4548 172.019 85.6009 170.695 91.4089C169.448 96.8781 164.383 101.428 158.358 100.424L104.225 91.4022C98.9421 90.5217 95.1734 85.5739 96.1562 80.1718C98.7412 65.963 103.108 54.0553 109.316 44.5175C116.531 33.1821 124.945 24.2316 134.578 17.7229C144.149 11.2563 154.385 6.84622 165.277 4.50919C176.045 1.947 186.453 0.660034 196.498 0.660034C212.654 0.660034 226.736 3.22226 238.692 8.41557C250.811 13.3181 260.927 19.921 268.994 28.2484C277.039 36.5521 283.018 46.0375 286.916 56.6929C290.797 67.3014 292.738 78.3008 292.738 89.68C292.738 96.6858 291.831 103.929 290.028 111.404C288.457 118.721 285.463 126.246 281.084 133.976C276.934 141.495 271.131 149.219 263.711 157.153C256.508 165.126 252.087 168.857 241.156 177.247C240.279 177.919 239.024 177.754 238.351 176.878C237.679 176.001 237.844 174.746 238.72 174.073C249.57 165.747 253.776 162.185 260.754 154.459L260.765 154.447L260.777 154.434C268.041 146.669 273.632 139.202 277.587 132.034L277.592 132.024L277.598 132.014C281.824 124.556 284.653 117.4 286.122 110.541L286.128 110.516L286.134 110.491C287.874 103.282 288.738 96.3464 288.738 89.68C288.738 78.7659 286.879 68.232 283.16 58.0672C279.458 47.9492 273.784 38.9413 266.121 31.0316C258.487 23.1512 248.852 16.8374 237.168 12.1142L237.144 12.1045L237.12 12.0942C225.774 7.16108 212.251 4.66003 196.498 4.66003Z" fill="url(#paint0_linear_174_109382)"></path>

<defs>
<linearGradient id="paint0_linear_174_109382" x1="96.9306" y1="297.156" x2="338.334" y2="22.2705" gradientUnits="userSpaceOnUse">
<stop stop-opacity="0"></stop><stop offset="0.177083" stop-color="#0eacf5"></stop>
<stop offset="0.5" stop-color="white"></stop>
<stop offset="0.822917" stop-color="#0eacf5"></stop>
<stop offset="1" stop-opacity="0"></stop>
</linearGradient>
</defs>
</svg>
