<svg width="53" height="36" viewBox="0 0 53 36" fill="none" xmlns="http://www.w3.org/2000/svg">
<path d="M34.7247 20.395C33.1041 34.5204 29.7299 37.2015 15.6039 35.5814C1.4791 33.9607 -1.20065 30.5858 0.418106 16.4605C2.03883 2.33507 5.41366 -0.344683 19.5391 1.27605C33.6645 2.89549 36.3455 6.26963 34.7247 20.395Z" fill="url(#paint0_linear_4_1919)"/>
<path d="M19.0898 12.6953C19.056 12.7461 19.0221 12.7884 18.9883 12.8223C18.9714 12.8561 18.9544 12.8984 18.9375 12.9492C18.9206 13.0339 18.9206 13.1016 18.9375 13.1523C18.9714 13.1862 18.9967 13.237 19.0137 13.3047C18.946 13.4062 18.9036 13.4993 18.8867 13.584C18.6497 13.6348 18.5059 13.6517 18.4551 13.6348C18.4212 13.6178 18.3789 13.5924 18.3281 13.5586C18.2604 13.5755 18.2012 13.6009 18.1504 13.6348C18.0996 13.6517 18.0404 13.6771 17.9727 13.7109C17.8203 13.6263 17.7272 13.5671 17.6934 13.5332C17.6595 13.4824 17.6257 13.4401 17.5918 13.4062C17.4056 13.4232 17.2363 13.4316 17.084 13.4316C16.9316 13.4147 16.7878 13.4316 16.6523 13.4824C16.3477 13.3809 16.1361 13.3724 16.0176 13.457C15.8991 13.5417 15.7467 13.5755 15.5605 13.5586C15.4251 13.457 15.332 13.4232 15.2812 13.457C15.2305 13.474 15.1628 13.474 15.0781 13.457C14.9089 13.3216 14.8073 13.2708 14.7734 13.3047C14.7396 13.3216 14.6973 13.3385 14.6465 13.3555C14.5618 13.3385 14.4857 13.3301 14.418 13.3301C14.3503 13.3301 14.291 13.347 14.2402 13.3809C14.2064 13.4147 14.181 13.4655 14.1641 13.5332C14.1471 13.584 14.1217 13.6263 14.0879 13.6602C14.1895 13.8633 14.2148 13.9818 14.1641 14.0156C14.1302 14.0495 14.0964 14.1003 14.0625 14.168C14.0794 14.2357 14.0964 14.3034 14.1133 14.3711C14.1302 14.4388 14.1302 14.515 14.1133 14.5996C14.1471 14.6842 14.181 14.7689 14.2148 14.8535C14.2656 14.9382 14.2995 15.0312 14.3164 15.1328C14.401 15.2852 14.418 15.3783 14.3672 15.4121C14.3333 15.429 14.2995 15.4629 14.2656 15.5137C14.3164 15.8014 14.3333 16.0046 14.3164 16.123C14.2995 16.2415 14.3079 16.3685 14.3418 16.5039C14.3757 16.5547 14.3926 16.6309 14.3926 16.7324C14.4095 16.8171 14.4264 16.8763 14.4434 16.9102C14.3926 17.0456 14.3926 17.1133 14.4434 17.1133C14.4941 17.1133 14.5618 17.1133 14.6465 17.1133C14.8665 17.1979 15.002 17.2318 15.0527 17.2148C15.1035 17.1979 15.1628 17.181 15.2305 17.1641C15.3151 17.0794 15.4082 17.0117 15.5098 16.9609C15.6113 16.8932 15.7129 16.8255 15.8145 16.7578C16.0345 16.8594 16.1615 16.8848 16.1953 16.834C16.2461 16.7832 16.3138 16.7832 16.3984 16.834C16.5169 16.9525 16.5931 16.9863 16.627 16.9355C16.6608 16.8678 16.7285 16.834 16.8301 16.834C16.9147 16.7663 16.9909 16.6986 17.0586 16.6309C17.1432 16.5632 17.2194 16.487 17.2871 16.4023C17.4225 16.3346 17.5495 16.2585 17.668 16.1738C17.7865 16.0723 17.9219 16.0046 18.0742 15.9707C18.2435 16.0892 18.3027 16.1738 18.252 16.2246C18.2689 16.36 18.235 16.4531 18.1504 16.5039C18.0827 16.5547 18.0319 16.6139 17.998 16.6816C17.9303 16.9017 17.8711 17.054 17.8203 17.1387C17.7695 17.2233 17.7103 17.3079 17.6426 17.3926C17.7103 17.5788 17.6934 17.7396 17.5918 17.875C17.4902 17.9935 17.4141 18.1204 17.3633 18.2559C17.3464 18.4759 17.3464 18.6536 17.3633 18.7891C17.3802 18.9245 17.3379 19.043 17.2363 19.1445C17.1686 19.3307 17.0924 19.4238 17.0078 19.4238C16.9401 19.4238 16.8893 19.4408 16.8555 19.4746C16.6354 19.4915 16.5 19.5085 16.4492 19.5254C16.4154 19.5423 16.3815 19.5423 16.3477 19.5254L16.0176 19.373C15.8822 19.4069 15.7975 19.4154 15.7637 19.3984C15.7298 19.3815 15.6875 19.373 15.6367 19.373C15.5521 19.39 15.4759 19.4238 15.4082 19.4746C15.3405 19.5254 15.2559 19.5423 15.1543 19.5254C15.002 19.4238 14.8919 19.39 14.8242 19.4238C14.7565 19.4408 14.7057 19.3984 14.6719 19.2969C14.7057 19.2461 14.7565 19.2207 14.8242 19.2207C14.8919 19.2038 14.9258 19.153 14.9258 19.0684C14.8242 19.0514 14.7396 19.0768 14.6719 19.1445C14.6042 19.2122 14.528 19.2546 14.4434 19.2715C14.3757 19.4915 14.3249 19.627 14.291 19.6777C14.2572 19.7116 14.2318 19.7708 14.2148 19.8555C14.2148 19.9401 14.2318 19.9993 14.2656 20.0332C14.2995 20.0671 14.3164 20.1178 14.3164 20.1855C14.3333 20.2871 14.2995 20.3802 14.2148 20.4648C14.1302 20.5495 14.0625 20.651 14.0117 20.7695C13.9948 20.8372 13.9779 20.8965 13.9609 20.9473C13.9609 20.998 13.9609 21.0658 13.9609 21.1504C14.0625 21.3027 14.0964 21.4043 14.0625 21.4551C14.0286 21.4889 14.0117 21.5397 14.0117 21.6074C14.1302 21.7767 14.181 21.8783 14.1641 21.9121C14.1471 21.946 14.1387 21.9967 14.1387 22.0645C14.2402 22.3184 14.2995 22.4622 14.3164 22.4961C14.2995 22.6315 14.2826 22.7246 14.2656 22.7754C14.2487 22.8092 14.2318 22.8431 14.2148 22.877C14.3333 23.097 14.3757 23.224 14.3418 23.2578C14.3249 23.2747 14.3164 23.3255 14.3164 23.4102C14.2826 23.7826 14.2656 24.0957 14.2656 24.3496C14.2995 24.485 14.2995 24.6204 14.2656 24.7559C14.2487 24.8743 14.2233 24.9844 14.1895 25.0859C14.2233 25.2721 14.2233 25.4076 14.1895 25.4922C14.2572 25.6276 14.291 25.7546 14.291 25.873C14.3249 25.9069 14.3418 25.9577 14.3418 26.0254C14.3587 26.0931 14.3333 26.1439 14.2656 26.1777C14.0286 26.1608 13.834 26.1608 13.6816 26.1777C13.5462 26.2116 13.4362 26.1862 13.3516 26.1016C13.2839 26.1185 13.2161 26.1354 13.1484 26.1523C13.0977 26.1693 13.0384 26.1862 12.9707 26.2031C12.8522 26.1693 12.7337 26.1693 12.6152 26.2031C12.5137 26.237 12.4036 26.2539 12.2852 26.2539C12.0482 26.1862 11.8958 26.1862 11.8281 26.2539C11.7604 26.3216 11.6589 26.3639 11.5234 26.3809C11.168 26.2793 10.8633 26.2116 10.6094 26.1777C10.3724 26.1608 10.1777 26.2116 10.0254 26.3301C9.83919 26.2793 9.73763 26.2454 9.7207 26.2285C9.58529 26.2624 9.48372 26.3216 9.41602 26.4062C9.33138 26.5078 9.19596 26.5417 9.00977 26.5078C9.0944 26.3385 9.16211 26.237 9.21289 26.2031C9.24674 26.1862 9.2806 26.1608 9.31445 26.127C9.38216 26.0931 9.44987 26.0423 9.51758 25.9746C9.58529 25.9069 9.66146 25.8561 9.74609 25.8223C9.98307 25.873 10.1354 25.873 10.2031 25.8223C10.2708 25.7715 10.347 25.7292 10.4316 25.6953C10.4316 25.543 10.4316 25.4076 10.4316 25.2891C10.5332 25.2552 10.6094 25.196 10.6602 25.1113C10.6094 25.0436 10.6009 24.9759 10.6348 24.9082C10.6686 24.8405 10.7194 24.7897 10.7871 24.7559C10.8717 24.722 10.9479 24.7135 11.0156 24.7305C11.0833 24.7474 11.1257 24.8066 11.1426 24.9082C11.2611 24.8743 11.3288 24.7897 11.3457 24.6543C11.3796 24.5189 11.4388 24.4089 11.5234 24.3242C11.4896 24.2227 11.4557 24.1634 11.4219 24.1465C11.4049 24.1296 11.3965 24.1042 11.3965 24.0703C11.3457 23.8672 11.3542 23.7402 11.4219 23.6895C11.4896 23.6387 11.515 23.5456 11.498 23.4102C11.4473 23.207 11.4134 23.0885 11.3965 23.0547C11.3796 23.0208 11.3711 22.9701 11.3711 22.9023C11.4049 22.8008 11.4134 22.6992 11.3965 22.5977C11.4134 22.5299 11.4557 22.4453 11.5234 22.3438C11.4896 22.1068 11.4896 21.8783 11.5234 21.6582C11.5742 21.4382 11.6165 21.2096 11.6504 20.9727C11.7012 20.9049 11.7266 20.7949 11.7266 20.6426C11.5911 20.7611 11.4896 20.8034 11.4219 20.7695C11.4219 20.6341 11.4642 20.5326 11.5488 20.4648C11.6335 20.3971 11.6927 20.3125 11.7266 20.2109C11.6589 20.0247 11.6165 19.8978 11.5996 19.8301C11.5996 19.7454 11.6165 19.6862 11.6504 19.6523C11.6504 19.6016 11.625 19.5592 11.5742 19.5254C11.5234 19.4915 11.515 19.4323 11.5488 19.3477C11.4303 19.1276 11.4134 18.9922 11.498 18.9414C11.5827 18.8737 11.6419 18.7806 11.6758 18.6621C11.6589 18.5267 11.625 18.4082 11.5742 18.3066C11.5404 18.2051 11.5319 18.0866 11.5488 17.9512C11.515 17.7311 11.5234 17.5703 11.5742 17.4688C11.4388 17.3333 11.3965 17.1556 11.4473 16.9355C11.4134 16.6309 11.4049 16.4108 11.4219 16.2754C11.4557 16.123 11.515 15.9961 11.5996 15.8945C11.5996 15.8438 11.5996 15.793 11.5996 15.7422C11.5996 15.6745 11.5911 15.6152 11.5742 15.5645C11.5742 15.3783 11.5742 15.2598 11.5742 15.209C11.5911 15.1243 11.6165 15.0651 11.6504 15.0312C11.7012 14.9805 11.7435 14.9297 11.7773 14.8789C11.7435 14.7943 11.6927 14.7266 11.625 14.6758C11.5573 14.625 11.515 14.5488 11.498 14.4473C11.3965 14.3118 11.3626 14.2357 11.3965 14.2188C11.4473 14.2018 11.4811 14.1764 11.498 14.1426C11.4303 13.9733 11.4134 13.8717 11.4473 13.8379C11.4811 13.7871 11.5065 13.7194 11.5234 13.6348C11.4896 13.5501 11.4388 13.4993 11.3711 13.4824C11.3203 13.4486 11.2695 13.4062 11.2188 13.3555C11.2018 13.237 11.1595 13.1523 11.0918 13.1016C11.041 13.0508 11.0072 12.9661 10.9902 12.8477C10.8717 12.6784 10.821 12.5853 10.8379 12.5684C10.7025 12.4837 10.6263 12.4329 10.6094 12.416C10.5924 12.3822 10.584 12.3483 10.584 12.3145C10.4316 12.3483 10.2878 12.3314 10.1523 12.2637C10.0339 12.179 9.94922 12.0944 9.89844 12.0098C9.76302 11.9251 9.66146 11.849 9.59375 11.7812C9.54297 11.7305 9.47526 11.6966 9.39062 11.6797C9.28906 11.6458 9.25521 11.5781 9.28906 11.4766C9.50911 11.4766 9.65299 11.4258 9.7207 11.3242C9.80534 11.375 9.88997 11.375 9.97461 11.3242C10.0423 11.2734 10.1185 11.2565 10.2031 11.2734C10.2708 11.2734 10.3301 11.2988 10.3809 11.3496C10.4486 11.4004 10.5417 11.4173 10.6602 11.4004C10.7786 11.2988 10.8971 11.2734 11.0156 11.3242C11.1003 11.3073 11.168 11.2819 11.2188 11.248C11.2695 11.1973 11.3372 11.1634 11.4219 11.1465C11.4557 11.1803 11.515 11.1973 11.5996 11.1973C11.6842 11.1803 11.7604 11.1803 11.8281 11.1973C11.9128 11.1634 12.0059 11.1126 12.1074 11.0449C12.209 10.9772 12.3105 10.9772 12.4121 11.0449C12.446 11.1296 12.446 11.1973 12.4121 11.248C12.3783 11.2988 12.3529 11.3581 12.3359 11.4258C12.5221 11.4089 12.6576 11.3919 12.7422 11.375C12.8268 11.3411 12.9115 11.3158 12.9961 11.2988C13.0807 11.3496 13.2415 11.3581 13.4785 11.3242C13.5801 11.3073 13.6647 11.2819 13.7324 11.248C13.8171 11.2142 13.9017 11.2396 13.9863 11.3242C14.0879 11.4427 14.1725 11.485 14.2402 11.4512C14.3079 11.4004 14.3841 11.3496 14.4688 11.2988C14.5872 11.3158 14.6973 11.3073 14.7988 11.2734C14.9173 11.2396 15.0443 11.2396 15.1797 11.2734C15.2982 11.2565 15.4082 11.2142 15.5098 11.1465C15.6283 11.0788 15.7383 11.0872 15.8398 11.1719C15.9753 11.3242 16.1191 11.3835 16.2715 11.3496C16.4238 11.2988 16.5677 11.2904 16.7031 11.3242C16.7878 11.3242 16.8724 11.3242 16.957 11.3242C17.0417 11.3073 17.1178 11.3158 17.1855 11.3496C17.2871 11.248 17.4056 11.1634 17.541 11.0957C17.6934 11.028 17.8457 10.9688 17.998 10.918C18.0827 10.901 18.1419 10.9095 18.1758 10.9434C18.2096 10.9603 18.2604 10.9688 18.3281 10.9688C18.4297 10.8672 18.4974 10.8079 18.5312 10.791C18.5651 10.7572 18.599 10.7233 18.6328 10.6895C18.8529 10.6387 19.0052 10.5879 19.0898 10.5371C19.1914 10.4694 19.3014 10.3932 19.4199 10.3086C19.4707 10.224 19.5215 10.1562 19.5723 10.1055C19.64 10.0378 19.7077 9.97852 19.7754 9.92773C19.7754 9.74154 19.8262 9.62305 19.9277 9.57227C20.0293 9.50456 20.1139 9.41992 20.1816 9.31836C20.1647 9.28451 20.1393 9.24219 20.1055 9.19141C20.0716 9.14062 20.0716 9.08984 20.1055 9.03906C20.1901 9.02214 20.2663 9.0306 20.334 9.06445C20.4186 9.09831 20.4863 9.13216 20.5371 9.16602C20.554 9.35221 20.5879 9.43685 20.6387 9.41992C20.6895 9.38607 20.7233 9.38607 20.7402 9.41992C20.7402 9.52148 20.6979 9.58073 20.6133 9.59766C20.5286 9.59766 20.4525 9.61458 20.3848 9.64844C20.3171 9.75 20.2578 9.86003 20.207 9.97852C20.1732 10.0801 20.1647 10.1986 20.1816 10.334C20.1478 10.4017 20.1139 10.4609 20.0801 10.5117C20.0462 10.5625 20.0293 10.6302 20.0293 10.7148C19.9277 10.8841 19.86 10.9772 19.8262 10.9941C19.8092 11.0111 19.7754 11.0111 19.7246 10.9941C19.7077 11.248 19.7161 11.4004 19.75 11.4512C19.8008 11.485 19.8346 11.5358 19.8516 11.6035C19.8346 11.6882 19.7839 11.7305 19.6992 11.7305C19.6315 11.7305 19.5723 11.7474 19.5215 11.7812C19.5046 11.832 19.4961 11.8828 19.4961 11.9336C19.4961 11.9844 19.4876 12.0436 19.4707 12.1113C19.3353 12.2298 19.2337 12.3229 19.166 12.3906C19.1152 12.4583 19.0898 12.5599 19.0898 12.6953ZM24.173 20.5156C24.19 20.6341 24.1561 20.7441 24.0715 20.8457C24.0038 20.9473 23.953 21.0488 23.9191 21.1504C23.9868 21.252 24.0207 21.3704 24.0207 21.5059C24.0376 21.6243 24.0376 21.7513 24.0207 21.8867C24.0038 22.0221 23.9868 22.1576 23.9699 22.293C23.9699 22.4284 23.9868 22.5553 24.0207 22.6738C23.9699 22.7923 23.9445 22.9193 23.9445 23.0547C23.9615 23.1901 23.9784 23.3255 23.9953 23.4609C23.9445 23.681 23.9361 23.8418 23.9699 23.9434C24.0038 24.028 24.0207 24.138 24.0207 24.2734C23.9191 24.4935 23.8768 24.6458 23.8938 24.7305C23.9276 24.8151 23.9276 24.8828 23.8938 24.9336C23.9784 25.1875 24.0122 25.3398 23.9953 25.3906C23.9784 25.4414 23.9868 25.5007 24.0207 25.5684C23.9868 25.6022 23.9699 25.6615 23.9699 25.7461C23.9699 25.8307 23.953 25.8984 23.9191 25.9492C23.8007 25.9492 23.7329 25.9154 23.716 25.8477C23.6991 25.7799 23.6652 25.7292 23.6145 25.6953C23.5637 25.7122 23.479 25.7207 23.3605 25.7207C23.259 25.7207 23.1659 25.7038 23.0813 25.6699C23.0135 25.7038 22.9543 25.7461 22.9035 25.7969C22.8697 25.8477 22.8104 25.8561 22.7258 25.8223C22.6919 25.8561 22.6665 25.9069 22.6496 25.9746C22.6327 26.0254 22.5904 26.0677 22.5227 26.1016C22.4042 25.9661 22.3365 25.8646 22.3195 25.7969C22.3195 25.7122 22.3026 25.6445 22.2688 25.5938C21.981 25.7799 21.7863 25.8307 21.6848 25.7461C21.4816 25.7969 21.3039 25.763 21.1516 25.6445C21.1346 25.3737 21.1685 25.2129 21.2531 25.1621C21.2193 25.0775 21.1939 24.9928 21.177 24.9082C21.177 24.8066 21.1685 24.7135 21.1516 24.6289C21.1854 24.5612 21.2193 24.4766 21.2531 24.375C21.287 24.2734 21.287 24.1634 21.2531 24.0449C21.1854 23.8587 21.16 23.7148 21.177 23.6133C21.2108 23.5117 21.2193 23.3932 21.2023 23.2578C21.2362 23.0378 21.2785 22.8939 21.3293 22.8262C21.3801 22.7585 21.3885 22.6738 21.3547 22.5723C21.3039 22.4368 21.2701 22.293 21.2531 22.1406C21.2362 21.9883 21.2701 21.8529 21.3547 21.7344C21.3208 21.6497 21.2954 21.5651 21.2785 21.4805C21.2785 21.3789 21.2616 21.2858 21.2277 21.2012C21.2277 21.0658 21.2362 20.9557 21.2531 20.8711C21.2531 20.8203 21.2447 20.778 21.2277 20.7441C21.2277 20.6934 21.2277 20.6426 21.2277 20.5918C21.1431 20.5072 21.1092 20.3633 21.1262 20.1602C21.1431 19.957 21.1939 19.8216 21.2785 19.7539C21.1939 19.5169 21.16 19.2461 21.177 18.9414C21.1939 18.6198 21.1854 18.3151 21.1516 18.0273C21.2193 17.9258 21.2362 17.7904 21.2023 17.6211C21.2531 17.4688 21.2701 17.3587 21.2531 17.291C21.2362 17.2233 21.2447 17.1556 21.2785 17.0879C21.2277 17.0033 21.2023 16.8763 21.2023 16.707C21.2193 16.5378 21.2701 16.4193 21.3547 16.3516C21.3208 16.2839 21.287 16.2077 21.2531 16.123C21.2362 16.0384 21.2531 15.9707 21.3039 15.9199C21.2701 15.8014 21.2362 15.7083 21.2023 15.6406C21.1685 15.556 21.1431 15.4544 21.1262 15.3359C21.1092 15.2682 21.1177 15.2259 21.1516 15.209C21.1854 15.1751 21.1939 15.1159 21.177 15.0312C21.2954 14.8789 21.3632 14.752 21.3801 14.6504C21.397 14.5488 21.4647 14.498 21.5832 14.498C21.3801 14.278 21.2531 14.151 21.2023 14.1172C21.1854 14.0664 21.16 14.0241 21.1262 13.9902C21.0923 13.9395 21.0839 13.8717 21.1008 13.7871C21.1516 13.584 21.1431 13.4316 21.0754 13.3301C21.0077 13.2285 20.9315 13.1354 20.8469 13.0508C20.8299 12.9831 20.813 12.9238 20.7961 12.873C20.7792 12.8223 20.7792 12.7546 20.7961 12.6699C20.8469 12.2975 20.7284 12.0859 20.4406 12.0352C20.3729 11.8997 20.3221 11.832 20.2883 11.832C20.2714 11.832 20.246 11.8151 20.2121 11.7812C20.1275 11.612 20.0259 11.5443 19.9074 11.5781C19.8059 11.5951 19.7212 11.5697 19.6535 11.502C19.6535 11.4173 19.6281 11.3665 19.5773 11.3496C19.5266 11.3327 19.4842 11.2988 19.4504 11.248C19.4504 11.1803 19.4758 11.138 19.5266 11.1211C19.5773 11.1042 19.6281 11.0872 19.6789 11.0703C19.7635 11.138 19.8651 11.1719 19.9836 11.1719C20.0682 11.1549 20.1444 11.1126 20.2121 11.0449C20.2967 10.9772 20.3898 10.9518 20.4914 10.9688C20.6607 11.0534 20.7538 11.0703 20.7707 11.0195C20.8046 10.9688 20.8638 10.9434 20.9484 10.9434C21.0669 11.1296 21.1516 11.2057 21.2023 11.1719C21.2701 11.138 21.3293 11.0957 21.3801 11.0449C21.4647 11.0111 21.5663 11.0026 21.6848 11.0195C21.8202 11.0365 21.9302 11.0703 22.0148 11.1211C22.1164 11.0872 22.218 11.0788 22.3195 11.0957C22.4211 11.0957 22.5396 11.0872 22.675 11.0703C22.8104 11.1211 22.8951 11.1296 22.9289 11.0957C22.9628 11.0449 23.0135 11.0111 23.0813 10.9941C23.132 11.0111 23.1659 11.0449 23.1828 11.0957C23.2167 11.1296 23.2505 11.1634 23.2844 11.1973C23.369 11.2142 23.4367 11.2142 23.4875 11.1973C23.5383 11.1803 23.5891 11.1549 23.6398 11.1211C23.9107 11.0195 24.0461 11.0365 24.0461 11.1719C24.0461 11.3073 24.0292 11.4427 23.9953 11.5781C24.0122 11.6289 24.0292 11.6712 24.0461 11.7051C24.0799 11.7389 24.1053 11.7812 24.1223 11.832C24.0038 12.0182 23.9276 12.1283 23.8938 12.1621C23.8768 12.196 23.8684 12.2298 23.8684 12.2637C23.8514 12.3483 23.8684 12.4245 23.9191 12.4922C23.9868 12.5599 24.0038 12.653 23.9699 12.7715C23.8345 12.9408 23.7837 13.0339 23.8176 13.0508C23.8684 13.0677 23.9191 13.0846 23.9699 13.1016C24.0207 13.3216 24.0292 13.4486 23.9953 13.4824C23.9615 13.4993 23.9361 13.5417 23.9191 13.6094C23.953 13.7448 23.9868 13.8379 24.0207 13.8887C23.9868 13.9733 23.9699 14.0579 23.9699 14.1426C23.9699 14.2103 23.9699 14.2865 23.9699 14.3711C23.953 14.4557 23.9276 14.5319 23.8938 14.5996C23.8768 14.6673 23.8684 14.7435 23.8684 14.8281C23.8684 14.9635 23.8938 15.0905 23.9445 15.209C23.9953 15.3105 23.9953 15.4206 23.9445 15.5391C23.9953 16.0469 23.9868 16.4362 23.9191 16.707C23.9361 16.9271 23.953 17.0964 23.9699 17.2148C23.9868 17.3164 23.9699 17.4095 23.9191 17.4941C23.9361 17.5449 23.9615 17.5872 23.9953 17.6211C24.0292 17.6549 24.0461 17.6973 24.0461 17.748C24.063 17.9173 24.0207 18.0527 23.9191 18.1543C23.8176 18.3574 23.8007 18.4844 23.8684 18.5352C23.9361 18.5859 23.9868 18.6536 24.0207 18.7383C24.0376 18.8737 24.0207 18.9753 23.9699 19.043C23.9361 19.1107 23.9276 19.2038 23.9445 19.3223C23.9615 19.4069 23.9868 19.4915 24.0207 19.5762C24.0546 19.6439 24.0799 19.7201 24.0969 19.8047C23.9784 19.8893 23.9276 19.9655 23.9445 20.0332C23.9615 20.084 23.9615 20.1263 23.9445 20.1602C23.9784 20.2279 24.0207 20.2871 24.0715 20.3379C24.1223 20.3717 24.1561 20.431 24.173 20.5156ZM36.5941 21.0996C36.628 21.1842 36.6365 21.2604 36.6195 21.3281C36.6026 21.3789 36.5941 21.4466 36.5941 21.5312C36.4926 21.6497 36.4418 21.7259 36.4418 21.7598C36.4587 21.7767 36.4503 21.8105 36.4164 21.8613C36.518 21.9967 36.5349 22.0729 36.4672 22.0898C36.4164 22.1068 36.3741 22.1406 36.3402 22.1914C36.3064 22.2591 36.2725 22.3268 36.2387 22.3945C36.2217 22.4453 36.1964 22.513 36.1625 22.5977C36.1456 22.7331 36.1202 22.8262 36.0863 22.877C36.0694 22.9108 36.0525 22.9701 36.0355 23.0547C36.0863 23.2409 36.0694 23.3509 35.9848 23.3848C35.9171 23.4186 35.8578 23.4694 35.807 23.5371C35.824 23.8418 35.7901 24.0872 35.7055 24.2734C35.6378 24.4596 35.6208 24.6543 35.6547 24.8574C35.6208 24.9421 35.5785 25.0182 35.5277 25.0859C35.4939 25.1536 35.46 25.2298 35.4262 25.3145C35.3585 25.5007 35.3585 25.6445 35.4262 25.7461C35.4431 25.8307 35.4431 25.8984 35.4262 25.9492C35.4092 25.9831 35.3923 26.0339 35.3754 26.1016C35.2569 26.1354 35.1299 26.1523 34.9945 26.1523C34.876 26.1523 34.7745 26.11 34.6898 26.0254C34.6052 26.0592 34.5121 26.0677 34.4105 26.0508C34.3259 26.0339 34.2413 26.0169 34.1566 26C33.8689 26.0846 33.7165 26.0423 33.6996 25.873C33.5134 26.0254 33.3357 26.0846 33.1664 26.0508C33.0141 26.0339 32.9125 26.0508 32.8617 26.1016C32.7771 26.0846 32.6247 26.0762 32.4047 26.0762C32.2016 26.0931 32.0831 26.0677 32.0492 26C31.9815 26.0169 31.9307 26.0423 31.8969 26.0762C31.8799 26.127 31.8376 26.1693 31.7699 26.2031C31.6853 26.1693 31.5583 26.1523 31.3891 26.1523C31.2367 26.1693 31.1182 26.1608 31.0336 26.127C30.949 26.1608 30.8474 26.1862 30.7289 26.2031C30.6104 26.2201 30.5342 26.1608 30.5004 26.0254C30.4496 26.0592 30.3904 26.0931 30.3227 26.127C30.2719 26.1608 30.2211 26.1947 30.1703 26.2285C30.0857 26.2116 30.018 26.2201 29.9672 26.2539C29.9333 26.2878 29.8826 26.2962 29.8148 26.2793C29.7471 26.2793 29.6879 26.2454 29.6371 26.1777C29.5863 26.127 29.5102 26.11 29.4086 26.127C29.307 26.1777 29.197 26.1862 29.0785 26.1523C28.977 26.1185 28.8754 26.1016 28.7738 26.1016C28.5368 26.1862 28.4014 26.2116 28.3676 26.1777C28.3337 26.1608 28.2999 26.1354 28.266 26.1016C28.1306 26.0846 28.0375 26.0846 27.9867 26.1016C27.9529 26.1185 27.8936 26.1354 27.809 26.1523C27.7413 26.1354 27.682 26.1185 27.6313 26.1016C27.5974 26.1016 27.5551 26.1016 27.5043 26.1016C27.3858 26.0846 27.3012 26.0846 27.2504 26.1016C27.2165 26.1354 27.1573 26.1439 27.0727 26.127C26.9542 25.9746 26.878 25.8984 26.8441 25.8984C26.8103 25.8984 26.7934 25.873 26.7934 25.8223C26.9118 25.653 27.0134 25.526 27.098 25.4414C27.1996 25.4076 27.2758 25.3652 27.3266 25.3145C27.3773 25.2467 27.4704 25.2214 27.6059 25.2383C27.6566 25.1875 27.6736 25.1452 27.6566 25.1113C27.6397 25.0605 27.6228 24.9928 27.6059 24.9082C27.6566 24.8743 27.6905 24.849 27.7074 24.832C27.7413 24.8151 27.7921 24.7897 27.8598 24.7559C27.8936 24.7051 27.9444 24.6628 28.0121 24.6289C28.0798 24.5781 28.1306 24.5273 28.1645 24.4766C28.1306 24.4427 28.0967 24.4004 28.0629 24.3496C28.029 24.2819 28.029 24.2142 28.0629 24.1465C27.9952 24.0111 27.9783 23.9349 28.0121 23.918C28.0629 23.8841 28.0967 23.8418 28.1137 23.791C28.1814 23.7572 28.2152 23.7148 28.2152 23.6641C28.2322 23.5964 28.2576 23.5371 28.2914 23.4863C28.2406 23.2832 28.2322 23.1816 28.266 23.1816C28.3168 23.1647 28.3507 23.1393 28.3676 23.1055C28.3845 23.0208 28.376 22.9701 28.3422 22.9531C28.3083 22.9193 28.2745 22.8854 28.2406 22.8516C28.2406 22.7669 28.2152 22.7077 28.1645 22.6738C28.1137 22.623 28.0714 22.5638 28.0375 22.4961C28.0375 22.1576 28.0798 21.8867 28.1645 21.6836C28.2491 21.4805 28.3337 21.3027 28.4184 21.1504C28.3845 21.0827 28.3422 21.0488 28.2914 21.0488C28.2406 21.0319 28.1983 20.998 28.1645 20.9473C28.1645 20.8626 28.1729 20.8034 28.1898 20.7695C28.2068 20.7188 28.2322 20.668 28.266 20.6172C28.266 20.4818 28.2406 20.3717 28.1898 20.2871C28.1391 20.2025 28.1306 20.0671 28.1645 19.8809C28.0967 19.6947 28.0798 19.5931 28.1137 19.5762C28.1475 19.5423 28.1729 19.5085 28.1898 19.4746C28.2237 19.2715 28.2322 19.1615 28.2152 19.1445C28.1983 19.1276 28.1898 19.1022 28.1898 19.0684C28.2576 18.9329 28.2576 18.806 28.1898 18.6875C28.1391 18.569 28.1306 18.4421 28.1645 18.3066C28.1137 18.1374 28.0714 18.0443 28.0375 18.0273C28.0206 18.0104 28.0206 17.985 28.0375 17.9512C28.0375 17.8665 28.0629 17.8073 28.1137 17.7734C28.1645 17.7396 28.2068 17.6888 28.2406 17.6211C28.1729 17.5195 28.156 17.3587 28.1898 17.1387C28.0883 17.1048 28.0036 17.0625 27.9359 17.0117C27.8682 16.9609 27.8428 16.8678 27.8598 16.7324C27.8259 16.6816 27.7836 16.6393 27.7328 16.6055C27.699 16.5716 27.6736 16.5208 27.6566 16.4531C27.6905 16.3177 27.7667 16.2246 27.8852 16.1738C28.0036 16.1061 28.1052 16.013 28.1898 15.8945C28.1391 15.7591 28.1137 15.6322 28.1137 15.5137C28.1137 15.3952 28.1052 15.2767 28.0883 15.1582C28.156 14.9889 28.1729 14.8958 28.1391 14.8789C28.1221 14.8451 28.1306 14.8027 28.1645 14.752C28.2491 14.6165 28.266 14.5404 28.2152 14.5234C28.1814 14.4896 28.1475 14.4388 28.1137 14.3711C28.1475 14.3034 28.1729 14.2526 28.1898 14.2188C28.2068 14.168 28.2322 14.1172 28.266 14.0664C28.1814 13.8633 28.1391 13.7109 28.1391 13.6094C28.1391 13.4909 28.1221 13.3893 28.0883 13.3047L27.9359 12.9746C27.919 12.89 27.8852 12.8392 27.8344 12.8223C27.8005 12.8053 27.7667 12.7799 27.7328 12.7461C27.7497 12.6615 27.7328 12.6107 27.682 12.5938C27.6313 12.5768 27.5974 12.526 27.5805 12.4414C27.5635 12.3229 27.5382 12.2552 27.5043 12.2383C27.4704 12.2214 27.4451 12.196 27.4281 12.1621C27.2758 11.9928 27.2165 11.8997 27.2504 11.8828C27.2842 11.849 27.3181 11.8151 27.352 11.7812C27.1658 11.7135 27.0642 11.6712 27.0473 11.6543C27.0303 11.6204 27.0134 11.5866 26.9965 11.5527C26.7426 11.5358 26.6241 11.485 26.641 11.4004C26.6579 11.2988 26.6579 11.2057 26.641 11.1211C26.7087 11.0534 26.8018 11.028 26.9203 11.0449C27.0388 11.0618 27.1404 11.0449 27.225 10.9941C27.3266 10.9941 27.4112 11.0111 27.4789 11.0449C27.5635 11.0788 27.6651 11.0957 27.7836 11.0957C27.9529 11.0111 28.0629 10.9772 28.1137 10.9941C28.1645 10.9941 28.2152 10.9941 28.266 10.9941C28.3507 10.9434 28.4438 10.918 28.5453 10.918C28.6469 10.901 28.723 10.9349 28.7738 11.0195C28.977 10.9349 29.087 10.901 29.1039 10.918C29.1378 10.9349 29.1716 10.9518 29.2055 10.9688C29.2901 10.9349 29.3663 10.918 29.434 10.918C29.5017 10.901 29.5694 10.9095 29.6371 10.9434C29.7895 10.9264 29.9164 10.901 30.018 10.8672C30.1365 10.8164 30.2803 10.791 30.4496 10.791C30.585 10.8926 30.6781 10.9434 30.7289 10.9434C30.7966 10.9264 30.8474 10.9349 30.8813 10.9688C30.8813 11.0534 30.8643 11.1126 30.8305 11.1465C30.8135 11.1634 30.822 11.2057 30.8559 11.2734C30.822 11.3581 30.7966 11.4258 30.7797 11.4766C30.7628 11.5104 30.7374 11.5527 30.7035 11.6035C30.7374 11.8066 30.7628 11.9167 30.7797 11.9336C30.8135 11.9336 30.8305 11.9505 30.8305 11.9844C30.8474 12.0859 30.8051 12.1706 30.7035 12.2383C30.7374 12.2891 30.7628 12.3314 30.7797 12.3652C30.7966 12.3991 30.8135 12.4499 30.8305 12.5176C30.7966 12.6022 30.7712 12.6868 30.7543 12.7715C30.7543 12.8392 30.7712 12.9154 30.8051 13C30.7543 13.1693 30.7204 13.2624 30.7035 13.2793C30.7882 13.4993 30.822 13.6432 30.8051 13.7109C30.7204 13.8464 30.6781 13.9564 30.6781 14.041C30.6951 14.1257 30.7035 14.2103 30.7035 14.2949C30.7882 14.4473 30.8305 14.6673 30.8305 14.9551C30.8643 15.0059 30.8982 15.0482 30.932 15.082C30.9659 15.1159 30.9997 15.1582 31.0336 15.209C31.0336 15.3105 31.0082 15.3867 30.9574 15.4375C30.9236 15.4883 30.8982 15.556 30.8813 15.6406C30.7458 15.7422 30.6781 15.8099 30.6781 15.8438C30.6951 15.8776 30.7035 15.9284 30.7035 15.9961C30.7712 16.2161 30.7712 16.36 30.7035 16.4277C30.6358 16.4954 30.6189 16.5885 30.6527 16.707C30.8051 16.8424 30.8643 16.9186 30.8305 16.9355C30.8135 16.9355 30.7966 16.9525 30.7797 16.9863C30.7628 17.2233 30.7543 17.4095 30.7543 17.5449C30.7543 17.6634 30.7543 17.8073 30.7543 17.9766C31.059 18.1458 31.2113 18.2897 31.2113 18.4082C31.2113 18.5267 31.1436 18.5944 31.0082 18.6113C30.8728 18.6113 30.7882 18.6621 30.7543 18.7637C30.7543 18.8314 30.7712 18.8822 30.8051 18.916C30.8389 18.9499 30.8643 19.0007 30.8813 19.0684C30.8643 19.1868 30.8305 19.2799 30.7797 19.3477C30.8643 19.5677 30.8813 19.737 30.8305 19.8555C30.8813 19.9909 30.8897 20.1178 30.8559 20.2363C30.822 20.3379 30.7882 20.4479 30.7543 20.5664C30.7882 20.6341 30.822 20.6934 30.8559 20.7441C30.9066 20.778 30.9405 20.8372 30.9574 20.9219C30.9574 21.0065 30.932 21.0742 30.8813 21.125C30.8474 21.1589 30.8135 21.1927 30.7797 21.2266C30.7966 21.2943 30.8305 21.3366 30.8813 21.3535C30.932 21.3535 30.9743 21.3704 31.0082 21.4043C31.0251 21.472 31.0167 21.5312 30.9828 21.582C30.949 21.6159 30.9151 21.6497 30.8813 21.6836C30.8474 21.7174 30.822 21.7598 30.8051 21.8105C30.8051 21.8613 30.7882 21.9036 30.7543 21.9375C30.7374 22.0391 30.7204 22.1406 30.7035 22.2422C30.7035 22.3438 30.7289 22.4368 30.7797 22.5215C30.8135 22.64 30.8135 22.75 30.7797 22.8516C30.7628 22.9362 30.7458 23.0378 30.7289 23.1562C30.7797 23.1901 30.8305 23.2155 30.8813 23.2324C30.949 23.2493 30.9997 23.2917 31.0336 23.3594C31.0505 23.4102 31.059 23.4694 31.059 23.5371C31.0759 23.6048 31.0674 23.6725 31.0336 23.7402C31.1352 23.7741 31.2621 23.7741 31.4145 23.7402C31.5837 23.6895 31.7191 23.6725 31.8207 23.6895C31.8884 23.7233 31.9561 23.7487 32.0238 23.7656C32.1085 23.7826 32.1677 23.8249 32.2016 23.8926C32.2862 23.8757 32.4047 23.8587 32.557 23.8418C32.7263 23.8079 32.8533 23.7995 32.9379 23.8164C33.0902 23.918 33.2087 23.9518 33.2934 23.918C33.3949 23.8841 33.488 23.8757 33.5727 23.8926C33.6573 23.8587 33.725 23.8079 33.7758 23.7402C33.8266 23.6556 33.9197 23.6133 34.0551 23.6133C34.0889 23.5794 34.1228 23.5456 34.1566 23.5117C34.1905 23.4609 34.2413 23.4355 34.309 23.4355C34.3428 23.4017 34.3682 23.3594 34.3852 23.3086C34.419 23.2409 34.4613 23.1901 34.5121 23.1562C34.6814 23.1393 34.7745 23.1055 34.7914 23.0547C34.8083 22.987 34.8337 22.9362 34.8676 22.9023C34.9353 22.8854 34.9776 22.86 34.9945 22.8262C35.0284 22.7923 35.0707 22.7585 35.1215 22.7246C35.2908 22.7415 35.3669 22.6992 35.35 22.5977C35.35 22.4961 35.3669 22.4115 35.4008 22.3438C35.4516 22.293 35.5193 22.2507 35.6039 22.2168C35.6885 22.166 35.7647 22.1068 35.8324 22.0391C35.8324 21.9883 35.8155 21.946 35.7816 21.9121C35.7647 21.8613 35.7732 21.8105 35.807 21.7598C35.8747 21.7428 35.9594 21.6836 36.0609 21.582C36.1794 21.4128 36.2471 21.3197 36.2641 21.3027C36.2979 21.2858 36.3318 21.2604 36.3656 21.2266L36.5941 21.0996ZM51.6559 25.7715C51.6897 25.8223 51.749 25.8392 51.8336 25.8223C51.9352 25.7884 51.9944 25.8223 52.0113 25.9238C51.9775 25.9915 51.9352 26.0423 51.8844 26.0762C51.8505 26.127 51.8167 26.1693 51.7828 26.2031C51.6474 26.2031 51.5204 26.2031 51.402 26.2031C51.3004 26.2201 51.2073 26.1862 51.1227 26.1016C51.038 26.1354 50.9449 26.1693 50.8434 26.2031C50.7418 26.237 50.6487 26.2116 50.5641 26.127C50.3779 26.127 50.2678 26.11 50.234 26.0762C50.0647 26.0931 49.9293 26.0508 49.8277 25.9492C49.6585 25.9661 49.5315 26.0254 49.4469 26.127C49.3622 26.2285 49.2522 26.3047 49.1168 26.3555C49.066 26.2031 49.0322 26.1185 49.0152 26.1016C48.9983 26.0846 48.9898 26.0592 48.9898 26.0254C49.0237 25.9577 49.0322 25.89 49.0152 25.8223C49.0152 25.7376 49.0322 25.6615 49.066 25.5938C49.2184 25.4245 49.3115 25.2806 49.3453 25.1621C49.3115 25.1283 49.2522 25.1113 49.1676 25.1113C49.0829 25.1113 49.0322 25.069 49.0152 24.9844C49.0152 24.7812 49.0068 24.6712 48.9898 24.6543C49.0237 24.5697 49.0237 24.485 48.9898 24.4004C48.956 24.3158 48.9729 24.2311 49.0406 24.1465C48.9898 24.0957 48.9391 24.0449 48.8883 23.9941C48.8375 23.9434 48.8121 23.8672 48.8121 23.7656C48.846 23.6641 48.8967 23.5794 48.9645 23.5117C49.0322 23.444 49.0829 23.3509 49.1168 23.2324C48.9306 23.1309 48.8036 23.0293 48.7359 22.9277C48.6852 22.7585 48.6852 22.6061 48.7359 22.4707C48.7867 22.3353 48.829 22.2168 48.8629 22.1152C48.829 21.9629 48.8375 21.8359 48.8883 21.7344C48.7359 21.582 48.6767 21.4974 48.7105 21.4805C48.7444 21.4466 48.7698 21.4128 48.7867 21.3789C48.6513 21.2604 48.5751 21.1927 48.5582 21.1758C48.5413 21.1419 48.5497 21.1081 48.5836 21.0742C48.482 20.8034 48.4482 20.6257 48.482 20.541C48.5159 20.4564 48.5413 20.3548 48.5582 20.2363C48.4736 20.0501 48.4059 19.9401 48.3551 19.9062C48.3212 19.8724 48.2958 19.8301 48.2789 19.7793C48.2451 19.5931 48.2366 19.4915 48.2535 19.4746C48.2874 19.4577 48.3128 19.4323 48.3297 19.3984C48.2958 19.3307 48.2704 19.263 48.2535 19.1953C48.2366 19.1107 48.2112 19.043 48.1773 18.9922C48.1943 18.8737 48.2112 18.7721 48.2281 18.6875C48.262 18.5859 48.2704 18.4674 48.2535 18.332C48.2197 18.2643 48.1943 18.2051 48.1773 18.1543C48.1604 18.0866 48.152 18.0104 48.152 17.9258C48.1858 17.875 48.2112 17.8327 48.2281 17.7988C48.2451 17.765 48.262 17.7227 48.2789 17.6719C48.1266 17.6211 48.0335 17.6211 47.9996 17.6719C47.9827 17.7057 47.9488 17.7311 47.898 17.748C47.8642 17.8835 47.8134 17.9766 47.7457 18.0273C47.678 18.0612 47.6272 18.1204 47.5934 18.2051C47.6611 18.4082 47.6695 18.5352 47.6187 18.5859C47.568 18.6367 47.5172 18.6875 47.4664 18.7383C47.4495 18.9076 47.4241 19.0514 47.3902 19.1699C47.3564 19.2715 47.3564 19.4069 47.3902 19.5762C47.3056 19.6608 47.221 19.737 47.1363 19.8047C47.0517 19.8555 46.9924 19.9401 46.9586 20.0586C46.9586 20.1094 46.9671 20.1602 46.984 20.2109C47.0178 20.2448 47.0263 20.2956 47.0094 20.3633C46.9078 20.5664 46.857 20.7018 46.857 20.7695C46.857 20.8372 46.8486 20.8965 46.8316 20.9473C46.8316 21.1673 46.8062 21.2943 46.7555 21.3281C46.7047 21.3451 46.6624 21.3874 46.6285 21.4551C46.6454 21.5397 46.6708 21.6159 46.7047 21.6836C46.7555 21.7513 46.7809 21.8275 46.7809 21.9121C46.7639 22.0475 46.6708 22.1576 46.5016 22.2422C46.3831 22.4115 46.3069 22.5638 46.273 22.6992C46.2561 22.8346 46.1969 22.9447 46.0953 23.0293C46.0784 23.1478 46.0445 23.2409 45.9937 23.3086C45.943 23.3763 45.8922 23.4525 45.8414 23.5371C45.8245 23.6048 45.8245 23.6556 45.8414 23.6895C45.8583 23.7233 45.8753 23.7656 45.8922 23.8164C45.8583 23.9518 45.8583 24.0788 45.8922 24.1973C45.926 24.3158 45.9091 24.4342 45.8414 24.5527C45.6044 24.6882 45.5198 24.8659 45.5875 25.0859C45.5029 25.2383 45.469 25.3229 45.4859 25.3398C45.5029 25.3398 45.5113 25.3568 45.5113 25.3906C45.4775 25.4753 45.4521 25.5345 45.4352 25.5684C45.4182 25.5853 45.4267 25.6361 45.4605 25.7207C45.2743 25.7715 45.1728 25.8138 45.1559 25.8477C45.1559 25.8646 45.122 25.8646 45.0543 25.8477C44.9866 25.8307 44.9358 25.7969 44.902 25.7461C44.8681 25.6953 44.8342 25.6445 44.8004 25.5938C44.8004 25.5091 44.8089 25.4499 44.8258 25.416C44.8427 25.3822 44.8512 25.3314 44.8512 25.2637C44.7496 25.0267 44.6734 24.8997 44.6227 24.8828C44.5719 24.849 44.5549 24.7897 44.5719 24.7051C44.5211 24.502 44.5042 24.375 44.5211 24.3242C44.538 24.2565 44.5549 24.1803 44.5719 24.0957C44.5549 24.028 44.4618 23.9772 44.2926 23.9434C44.2757 23.9095 44.2587 23.8672 44.2418 23.8164C44.2249 23.7656 44.2333 23.7148 44.2672 23.6641C44.1656 23.4609 44.1318 23.3509 44.1656 23.334C44.1995 23.3001 44.2249 23.2578 44.2418 23.207C44.1741 23.1732 44.0979 23.1393 44.0133 23.1055C43.9456 23.0547 43.9286 22.9785 43.9625 22.877C43.8271 22.6908 43.7678 22.5723 43.7848 22.5215C43.8017 22.4538 43.8186 22.3945 43.8355 22.3438C43.8186 22.293 43.7932 22.2507 43.7594 22.2168C43.7424 22.166 43.7255 22.1152 43.7086 22.0645C43.607 21.8444 43.5478 21.6921 43.5309 21.6074C43.5309 21.5228 43.5478 21.4382 43.5816 21.3535C43.5816 21.3027 43.5732 21.2604 43.5562 21.2266C43.5562 21.1927 43.5562 21.1419 43.5562 21.0742C43.5224 20.9388 43.4462 20.8288 43.3277 20.7441C43.2262 20.6595 43.1331 20.5579 43.0484 20.4395C43.0484 20.3548 43.04 20.2956 43.023 20.2617C43.0061 20.2279 42.9807 20.1855 42.9469 20.1348C42.9469 20.0501 42.9553 19.9824 42.9723 19.9316C42.9892 19.8639 42.9807 19.7962 42.9469 19.7285C42.7945 19.5592 42.7099 19.4238 42.693 19.3223C42.693 19.2207 42.676 19.1276 42.6422 19.043C42.5576 18.8568 42.5322 18.7552 42.566 18.7383C42.5999 18.7214 42.6083 18.6875 42.5914 18.6367C42.4391 18.5182 42.3883 18.4336 42.4391 18.3828C42.3883 18.349 42.3375 18.3151 42.2867 18.2812C42.2529 18.2474 42.2275 18.1966 42.2105 18.1289C42.2275 18.0273 42.2275 17.9342 42.2105 17.8496C42.2105 17.765 42.2275 17.6549 42.2613 17.5195C42.2444 17.4857 42.2021 17.4688 42.1344 17.4688C42.0836 17.4518 42.0243 17.4434 41.9566 17.4434C41.8551 17.4772 41.8043 17.5449 41.8043 17.6465C41.8212 17.748 41.8212 17.8496 41.8043 17.9512C41.7535 18.1712 41.6858 18.3236 41.6012 18.4082C41.652 18.5944 41.6604 18.7129 41.6266 18.7637C41.6096 18.8145 41.5927 18.8652 41.5758 18.916C41.5927 19.0007 41.6096 19.0684 41.6266 19.1191C41.6604 19.153 41.6858 19.1953 41.7027 19.2461C41.6858 19.3307 41.652 19.3984 41.6012 19.4492C41.5504 19.4831 41.4996 19.5169 41.4488 19.5508C41.4658 19.7708 41.4573 19.8978 41.4234 19.9316C41.5081 19.9993 41.5504 20.0755 41.5504 20.1602C41.5504 20.2448 41.5504 20.3464 41.5504 20.4648C41.4658 20.668 41.3811 20.8118 41.2965 20.8965C41.3473 21.0996 41.3557 21.2181 41.3219 21.252C41.3049 21.2858 41.288 21.3197 41.2711 21.3535C41.288 21.4043 41.2965 21.4551 41.2965 21.5059C41.3134 21.5397 41.3219 21.5905 41.3219 21.6582C41.3727 21.8275 41.3811 21.929 41.3473 21.9629C41.3134 21.9798 41.2796 22.0052 41.2457 22.0391C41.2626 22.0898 41.2711 22.1406 41.2711 22.1914C41.288 22.2422 41.3049 22.2845 41.3219 22.3184C41.3219 22.4199 41.288 22.4876 41.2203 22.5215C41.1526 22.5553 41.1018 22.6146 41.068 22.6992C41.1187 22.9023 41.1357 23.1055 41.1187 23.3086C41.1018 23.4948 41.1018 23.681 41.1187 23.8672C41.1187 24.138 41.068 24.3327 40.9664 24.4512C40.8648 24.5527 40.8141 24.6966 40.8141 24.8828C40.8987 25.0352 40.9326 25.1283 40.9156 25.1621C40.8987 25.196 40.8818 25.2298 40.8648 25.2637C40.8987 25.3483 40.9072 25.4329 40.8902 25.5176C40.8902 25.5853 40.8902 25.6615 40.8902 25.7461C40.9579 25.9492 40.9241 26.0677 40.7887 26.1016C40.6702 26.1354 40.5602 26.1777 40.4586 26.2285C40.2893 26.3301 40.1539 26.3978 40.0523 26.4316C39.9508 26.6009 39.9 26.694 39.9 26.7109C39.9169 26.7279 39.9254 26.7448 39.9254 26.7617C39.8577 26.8464 39.7477 26.9141 39.5953 26.9648C39.5107 26.931 39.4176 26.9141 39.316 26.9141C39.2314 26.9141 39.1637 26.9395 39.1129 26.9902C39.096 27.1257 39.0621 27.1934 39.0113 27.1934C38.9775 27.1934 38.9352 27.2018 38.8844 27.2188C38.8505 27.2526 38.8167 27.2865 38.7828 27.3203C38.7659 27.3711 38.7236 27.3965 38.6559 27.3965C38.5543 27.515 38.4951 27.5742 38.4781 27.5742C38.4781 27.5911 38.4612 27.5996 38.4273 27.5996C38.2581 27.7012 38.1565 27.7773 38.1227 27.8281C38.1057 27.8958 38.0719 27.9128 38.0211 27.8789C37.9703 27.9297 37.9449 27.972 37.9449 28.0059C37.9449 28.0566 37.928 28.099 37.8941 28.1328C37.7249 28.2174 37.6487 28.2682 37.6656 28.2852C37.6826 28.3021 37.6826 28.3275 37.6656 28.3613C37.581 28.429 37.5048 28.5052 37.4371 28.5898C37.3694 28.6914 37.2763 28.7591 37.1578 28.793C37.0901 28.8776 37.0393 28.9538 37.0055 29.0215C36.9547 29.0892 36.8954 29.1654 36.8277 29.25C36.6585 29.3177 36.54 29.3854 36.4723 29.4531C36.3876 29.5208 36.3115 29.597 36.2437 29.6816C36.1422 29.4277 36.1168 29.2415 36.1676 29.123C36.2014 29.0046 36.2776 28.9368 36.3961 28.9199C36.4299 28.8353 36.4638 28.7422 36.4977 28.6406C36.5315 28.556 36.5654 28.4714 36.5992 28.3867C36.6839 28.319 36.7516 28.2428 36.8023 28.1582C36.8531 28.0736 36.9039 27.9889 36.9547 27.9043C36.9885 27.7689 37.0224 27.6589 37.0562 27.5742C37.0901 27.5065 37.1324 27.4557 37.1832 27.4219C37.234 27.388 37.2763 27.3457 37.3102 27.2949C37.2763 27.0918 37.2848 26.9733 37.3355 26.9395C37.3863 26.7533 37.4371 26.6009 37.4879 26.4824C37.5556 26.3809 37.6064 26.2708 37.6402 26.1523C37.691 26.1185 37.7333 26.0762 37.7672 26.0254C37.801 25.9746 37.8434 25.9323 37.8941 25.8984C37.8603 25.8138 37.8603 25.7292 37.8941 25.6445C37.9449 25.543 37.9872 25.4499 38.0211 25.3652C37.9703 25.2129 37.9618 25.1283 37.9957 25.1113C38.0465 25.0775 38.0888 25.0436 38.1227 25.0098C38.0888 24.8405 38.0465 24.7559 37.9957 24.7559C37.9449 24.7389 37.928 24.6882 37.9449 24.6035C38.0803 24.5358 38.148 24.4681 38.148 24.4004C38.148 24.3327 38.1311 24.2819 38.0973 24.248C38.148 24.1634 38.165 24.0618 38.148 23.9434C38.1311 23.8079 38.165 23.6979 38.2496 23.6133C38.2327 23.3763 38.2411 23.207 38.275 23.1055C38.3089 23.0039 38.3596 22.9193 38.4273 22.8516C38.4273 22.7161 38.4443 22.5977 38.4781 22.4961C38.512 22.3776 38.512 22.2422 38.4781 22.0898C38.5458 21.9714 38.6051 21.8021 38.6559 21.582C38.5374 21.3958 38.5035 21.2943 38.5543 21.2773C38.622 21.2435 38.6728 21.2012 38.7066 21.1504C38.622 20.8965 38.5882 20.7357 38.6051 20.668C38.622 20.5833 38.6051 20.4987 38.5543 20.4141C38.5543 20.3464 38.5712 20.2956 38.6051 20.2617C38.6389 20.2279 38.6728 20.1855 38.7066 20.1348C38.7236 19.9316 38.7405 19.7878 38.7574 19.7031C38.7913 19.6016 38.7913 19.5 38.7574 19.3984C38.7743 19.3138 38.7997 19.2292 38.8336 19.1445C38.8844 19.043 38.9013 18.9245 38.8844 18.7891C38.8844 18.6536 38.9098 18.5859 38.9605 18.5859C39.0113 18.569 39.0367 18.5267 39.0367 18.459C38.969 18.222 38.9436 18.0781 38.9605 18.0273C38.9944 17.9596 39.0283 17.8835 39.0621 17.7988C39.0452 17.4772 39.0706 17.2402 39.1383 17.0879C39.2229 16.9355 39.3076 16.7747 39.3922 16.6055C39.4091 16.487 39.426 16.4193 39.443 16.4023C39.4768 16.3685 39.4937 16.3262 39.4937 16.2754C39.443 16.2415 39.3753 16.2246 39.2906 16.2246C39.2229 16.2246 39.1975 16.1823 39.2145 16.0977C39.2483 16.013 39.2991 15.9453 39.3668 15.8945C39.4345 15.8438 39.4853 15.776 39.5191 15.6914C39.4514 15.4714 39.426 15.3444 39.443 15.3105C39.4768 15.2598 39.5107 15.209 39.5445 15.1582C39.5615 15.0736 39.553 14.9974 39.5191 14.9297C39.5022 14.8451 39.4768 14.7689 39.443 14.7012C39.426 14.6165 39.4176 14.5404 39.4176 14.4727C39.4176 14.388 39.443 14.3034 39.4937 14.2188C39.443 14.0833 39.4345 13.9733 39.4684 13.8887C39.6207 13.7533 39.6715 13.6432 39.6207 13.5586C39.6884 13.474 39.7138 13.3809 39.6969 13.2793C39.6969 13.1608 39.7138 13.0592 39.7477 12.9746C39.7138 12.89 39.6884 12.8223 39.6715 12.7715C39.6715 12.7038 39.6546 12.6445 39.6207 12.5938C39.5699 12.4245 39.5107 12.3229 39.443 12.2891C39.3753 12.2552 39.316 12.2129 39.2652 12.1621C39.2314 12.0775 39.206 12.0013 39.1891 11.9336C39.1891 11.8659 39.1721 11.7897 39.1383 11.7051C39.0706 11.6712 39.0113 11.6374 38.9605 11.6035C38.9098 11.5527 38.9182 11.4935 38.9859 11.4258C38.9521 11.375 38.9013 11.3411 38.8336 11.3242C38.7828 11.3073 38.7405 11.2819 38.7066 11.248C38.6897 11.1296 38.749 11.0365 38.8844 10.9688C38.9521 11.0026 39.0283 11.0365 39.1129 11.0703C39.1975 11.0872 39.2737 11.1126 39.3414 11.1465C39.6122 11.0788 39.8069 11.0534 39.9254 11.0703C40.0439 11.0703 40.1454 11.0703 40.2301 11.0703C40.2978 11.0365 40.357 11.0111 40.4078 10.9941C40.4755 10.9603 40.5517 10.9434 40.6363 10.9434C40.9072 10.9603 41.1187 10.9688 41.2711 10.9688C41.4234 10.9688 41.5419 11.0026 41.6266 11.0703C41.7789 11.0534 41.9059 11.0195 42.0074 10.9688C42.1259 10.918 42.2613 10.8926 42.4137 10.8926C42.566 10.9603 42.7014 10.9941 42.8199 10.9941C42.9553 10.9772 43.04 11.0111 43.0738 11.0957C43.0738 11.1803 43.0569 11.2565 43.023 11.3242C43.0061 11.3919 42.9807 11.4596 42.9469 11.5273C42.9977 11.6628 43.04 11.7389 43.0738 11.7559C43.1077 11.7728 43.1246 11.8066 43.1246 11.8574C43.2262 12.0267 43.26 12.1198 43.2262 12.1367C43.1923 12.1536 43.1585 12.179 43.1246 12.2129C43.2092 12.416 43.2685 12.5345 43.3023 12.5684C43.3362 12.6022 43.3447 12.653 43.3277 12.7207C43.4632 12.9408 43.5224 13.0846 43.5055 13.1523C43.4885 13.2031 43.4632 13.2539 43.4293 13.3047C43.5647 13.474 43.624 13.5755 43.607 13.6094C43.607 13.6432 43.607 13.6855 43.607 13.7363C43.7932 13.9395 43.8271 14.0749 43.7086 14.1426L43.8355 14.4727C43.8863 14.5404 43.9117 14.625 43.9117 14.7266C43.9286 14.8281 43.9794 14.9043 44.0641 14.9551C44.0302 15.0397 44.0217 15.1074 44.0387 15.1582C44.0556 15.209 44.081 15.2598 44.1148 15.3105C44.2164 15.4798 44.2503 15.5898 44.2164 15.6406C44.1995 15.6914 44.1741 15.7591 44.1402 15.8438C44.2418 15.9961 44.2841 16.0892 44.2672 16.123C44.2672 16.1569 44.2757 16.1908 44.2926 16.2246C44.3434 16.2585 44.3857 16.3008 44.4195 16.3516C44.4703 16.3854 44.538 16.4193 44.6227 16.4531C44.6904 16.5547 44.7073 16.7324 44.6734 16.9863C44.7073 17.0371 44.7411 17.0794 44.775 17.1133C44.8258 17.1302 44.8681 17.1556 44.902 17.1895C44.9189 17.2572 44.9189 17.3333 44.902 17.418C44.885 17.4857 44.8596 17.5365 44.8258 17.5703C44.8596 17.6549 44.8935 17.7396 44.9273 17.8242C44.9781 17.9089 45.0204 18.002 45.0543 18.1035C45.1728 18.0189 45.2743 17.9342 45.359 17.8496C45.4605 17.765 45.5621 17.6803 45.6637 17.5957C45.6467 17.5449 45.6044 17.5111 45.5367 17.4941C45.4859 17.4772 45.4521 17.4349 45.4352 17.3672C45.469 17.2318 45.5198 17.1133 45.5875 17.0117C45.6552 16.8932 45.6806 16.724 45.6637 16.5039C45.7483 16.3685 45.7652 16.3008 45.7145 16.3008C45.6637 16.2839 45.6383 16.2415 45.6383 16.1738C45.7568 15.9876 45.8245 15.8607 45.8414 15.793C45.8753 15.7253 45.8922 15.6237 45.8922 15.4883L45.9176 15.209C45.9345 15.1413 45.9937 15.0566 46.0953 14.9551C46.0615 14.8704 46.0615 14.7858 46.0953 14.7012C46.1292 14.5996 46.1969 14.5404 46.2984 14.5234C46.3154 14.4388 46.3323 14.3711 46.3492 14.3203C46.3831 14.2526 46.4169 14.1764 46.4508 14.0918C46.4846 14.0579 46.5185 14.0326 46.5523 14.0156C46.6031 13.9818 46.6454 13.9395 46.6793 13.8887C46.6793 13.7871 46.6454 13.7109 46.5777 13.6602C46.527 13.6094 46.51 13.5163 46.527 13.3809C46.6116 13.2285 46.6454 13.1439 46.6285 13.127C46.6116 13.0931 46.5947 13.0592 46.5777 13.0254C46.6116 12.9408 46.6201 12.89 46.6031 12.873C46.5862 12.8392 46.5693 12.7884 46.5523 12.7207C46.5693 12.6699 46.5947 12.6276 46.6285 12.5938C46.6624 12.543 46.6624 12.4753 46.6285 12.3906C46.5439 12.2891 46.4931 12.2298 46.4762 12.2129C46.4592 12.179 46.4423 12.1452 46.4254 12.1113C46.273 12.0436 46.1884 12.0013 46.1715 11.9844C46.1715 11.9674 46.1715 11.9421 46.1715 11.9082C46.0022 11.7728 45.9007 11.6882 45.8668 11.6543C45.8329 11.6035 45.7991 11.5443 45.7652 11.4766C45.6129 11.3581 45.5621 11.2734 45.6129 11.2227C45.6975 11.2396 45.7737 11.248 45.8414 11.248C45.926 11.248 46.0107 11.2565 46.0953 11.2734C46.1969 11.2396 46.2984 11.2227 46.4 11.2227C46.5185 11.2227 46.6285 11.2142 46.7301 11.1973C46.9163 11.2311 47.0432 11.248 47.1109 11.248C47.1956 11.2311 47.2802 11.2142 47.3648 11.1973C47.4156 11.1634 47.4749 11.138 47.5426 11.1211C47.6103 11.1042 47.678 11.0872 47.7457 11.0703C47.9319 11.0365 48.0758 11.0026 48.1773 10.9688C48.2958 10.9349 48.3974 10.9603 48.482 11.0449C48.5667 11.0449 48.6428 11.0449 48.7105 11.0449C48.7952 11.028 48.8798 11.0195 48.9645 11.0195C49.1168 11.0534 49.2184 11.0703 49.2691 11.0703C49.3199 11.0534 49.3622 11.028 49.3961 10.9941C49.4977 11.0957 49.6161 11.1211 49.7516 11.0703C49.9039 11.0195 50.0478 11.0195 50.1832 11.0703C50.1493 11.2227 50.0986 11.2988 50.0309 11.2988C49.9632 11.2819 49.9039 11.2819 49.8531 11.2988C49.9039 11.3835 49.9632 11.4173 50.0309 11.4004C50.1155 11.3665 50.2001 11.3665 50.2848 11.4004C50.4033 11.5527 50.4371 11.6712 50.3863 11.7559C50.3355 11.8405 50.2848 11.8997 50.234 11.9336C50.3017 12.1029 50.3271 12.2044 50.3102 12.2383C50.2932 12.2552 50.2678 12.2806 50.234 12.3145C50.2678 12.3652 50.3017 12.4414 50.3355 12.543C50.3863 12.6445 50.3694 12.7292 50.2848 12.7969C50.3186 12.8815 50.3102 12.9577 50.2594 13.0254C50.2086 13.0931 50.1663 13.1523 50.1324 13.2031C50.234 13.3893 50.2932 13.5078 50.3102 13.5586C50.344 13.6094 50.3609 13.6771 50.3609 13.7617C50.3609 13.8464 50.344 13.9395 50.3102 14.041C50.3779 14.2103 50.4033 14.3118 50.3863 14.3457C50.3694 14.3626 50.3525 14.388 50.3355 14.4219C50.3694 14.4896 50.3948 14.5573 50.4117 14.625C50.4456 14.6758 50.471 14.735 50.4879 14.8027C50.454 14.9382 50.4625 15.0651 50.5133 15.1836C50.5641 15.3021 50.6064 15.4206 50.6402 15.5391C50.6572 15.7253 50.691 15.8691 50.7418 15.9707C50.7418 16.1569 50.7333 16.3008 50.7164 16.4023C50.6995 16.5039 50.7079 16.5885 50.7418 16.6562C50.7757 16.8932 50.8095 17.0371 50.8434 17.0879C50.8941 17.1387 50.9111 17.2148 50.8941 17.3164C50.8603 17.4688 50.8518 17.5534 50.8687 17.5703C50.9026 17.5703 50.9365 17.5872 50.9703 17.6211C51.0042 17.7904 51.0296 17.9004 51.0465 17.9512C51.0803 18.002 51.0973 18.0443 51.0973 18.0781C51.0973 18.1628 51.0634 18.2305 50.9957 18.2812C50.9449 18.332 50.8857 18.3913 50.818 18.459C50.8518 18.5098 50.8941 18.569 50.9449 18.6367C51.0126 18.7044 51.038 18.7806 51.0211 18.8652C50.9534 19.1361 50.9449 19.3223 50.9957 19.4238C51.0634 19.5085 51.0973 19.61 51.0973 19.7285C51.1311 19.7624 51.148 19.8047 51.148 19.8555C51.165 19.9062 51.1904 19.9486 51.2242 19.9824C51.2242 20.0671 51.1988 20.1348 51.148 20.1855C51.1142 20.2194 51.0803 20.2533 51.0465 20.2871C51.0634 20.3379 51.0719 20.3971 51.0719 20.4648C51.0888 20.5156 51.1057 20.5664 51.1227 20.6172C51.2073 20.651 51.2581 20.7103 51.275 20.7949C51.2919 20.8626 51.2919 20.9388 51.275 21.0234C51.2581 21.1081 51.2242 21.1927 51.1734 21.2773C51.1396 21.362 51.1057 21.4212 51.0719 21.4551C51.2242 21.4212 51.3258 21.4635 51.3766 21.582C51.3766 21.6667 51.3596 21.7259 51.3258 21.7598C51.3089 21.7936 51.2835 21.8359 51.2496 21.8867C51.2835 22.0052 51.2919 22.1322 51.275 22.2676C51.2581 22.403 51.2327 22.5215 51.1988 22.623C51.3173 22.6908 51.3935 22.7415 51.4273 22.7754C51.4781 22.8092 51.512 22.86 51.5289 22.9277C51.5458 23.0462 51.5628 23.1562 51.5797 23.2578C51.5966 23.3594 51.5882 23.4525 51.5543 23.5371C51.5543 23.6387 51.5882 23.7233 51.6559 23.791C51.7236 23.8418 51.7997 23.8841 51.8844 23.918C51.8844 24.1042 51.8336 24.2311 51.732 24.2988C51.6474 24.3665 51.5966 24.485 51.5797 24.6543C51.6474 24.6882 51.7066 24.722 51.7574 24.7559C51.8251 24.7897 51.8505 24.849 51.8336 24.9336C51.7659 25.069 51.7405 25.1536 51.7574 25.1875C51.7913 25.2044 51.8082 25.2383 51.8082 25.2891C51.7913 25.4583 51.7659 25.5684 51.732 25.6191C51.6982 25.653 51.6728 25.7038 51.6559 25.7715Z" fill="white"/>
<defs>
<linearGradient id="paint0_linear_4_1919" x1="38.5414" y1="57.12" x2="0.0179998" y2="-0.504027" gradientUnits="userSpaceOnUse">
<stop offset="0.546875" stop-color="#52AABD"/>
<stop offset="0.947917" stop-color="#073BF3"/>
<stop offset="0.977" stop-color="#FFBCCE"/>
</linearGradient>
</defs>
</svg>
