        <svg xmlns="http://www.w3.org/2000/svg" xmlns:xlink="http://www.w3.org/1999/xlink" version="1.1" x="0px" y="0px"
            viewBox="0 0 64 64" style="enable-background:new 0 0 64 64;" xml:space="preserve" fill='#fff'>
            <path
                d="M55.156,30.219H33.781c-1.965,0-3.563,1.598-3.563,3.563v15.141c0,1.965,1.598,3.563,3.563,3.563h21.375  c1.965,0,3.563-1.598,3.563-3.563V33.781C58.719,31.817,57.121,30.219,55.156,30.219z M33.781,48.922V33.781h21.375l0.003,15.141  H33.781z" />
            <path
                d="M27.851,17.139c-0.984,0-1.781,0.798-1.781,1.781v4.517l-5.776-5.776c-0.696-0.696-1.823-0.696-2.519,0  c-0.696,0.695-0.696,1.823,0,2.519l5.776,5.776h-4.517c-0.984,0-1.781,0.798-1.781,1.781c0,0.984,0.798,1.781,1.781,1.781h8.817  c0.117,0,0.234-0.012,0.349-0.035c0.053-0.01,0.102-0.03,0.153-0.045c0.06-0.018,0.121-0.032,0.18-0.056  c0.061-0.025,0.115-0.059,0.172-0.091c0.045-0.025,0.091-0.044,0.134-0.073c0.195-0.13,0.363-0.298,0.494-0.494  c0.03-0.044,0.05-0.093,0.075-0.139c0.03-0.055,0.064-0.109,0.088-0.167c0.025-0.06,0.039-0.122,0.057-0.183  c0.015-0.05,0.034-0.098,0.044-0.149c0.023-0.115,0.035-0.232,0.035-0.349V18.92C29.633,17.937,28.835,17.139,27.851,17.139z" />
            <path
                d="M25.765,48.923H9.734c-0.491,0-0.891-0.399-0.891-0.891V15.969c0-0.491,0.399-0.891,0.891-0.891h44.531  c0.491,0,0.891,0.4,0.891,0.891v9.797c0,0.984,0.798,1.781,1.781,1.781c0.983,0,1.781-0.798,1.781-1.781v-9.797  c0.001-2.456-1.997-4.453-4.452-4.453H9.734c-2.455,0-4.453,1.998-4.453,4.453v32.063c0,2.455,1.998,4.453,4.453,4.453h16.031  c0.984,0,1.781-0.798,1.781-1.781C27.546,49.721,26.748,48.923,25.765,48.923z" />
    
        </svg>